<svg xmlns="http://www.w3.org/2000/svg" viewBox="0 0 104 104"><defs><style>.cls-1{fill:#eb2227;}.cls-2{fill:#705746;}</style></defs><title>Dark (1)</title><g id="Layer_2" data-name="Layer 2"><g id="Layer_1-2" data-name="Layer 1"><g id="Dark"><path class="cls-1" d="M52,0a52,52,0,1,0,52,52A52,52,0,0,0,52,0Zm0,85.42A33.47,33.47,0,1,1,85.42,52,33.22,33.22,0,0,1,52,85.42Zm0-60.67a26.87,26.87,0,0,0-7,.93,28.75,28.75,0,0,1,0,52.54,26.87,26.87,0,0,0,7,.93,27.2,27.2,0,0,0,0-54.4Z"/><path class="cls-1" d="M79.14,52A27.19,27.19,0,0,1,52,79.15a26.87,26.87,0,0,1-7-.93,28.75,28.75,0,0,0,0-52.54,26.87,26.87,0,0,1,7-.93A27.19,27.19,0,0,1,79.14,52Z"/><path class="cls-1" d="M52,0a52,52,0,1,0,52,52A52,52,0,0,0,52,0Zm0,85.42A33.47,33.47,0,1,1,85.42,52,33.22,33.22,0,0,1,52,85.42Zm0-60.67a26.87,26.87,0,0,0-7,.93,28.75,28.75,0,0,1,0,52.54,26.87,26.87,0,0,0,7,.93,27.2,27.2,0,0,0,0-54.4Z"/><path class="cls-1" d="M79.14,52A27.19,27.19,0,0,1,52,79.15a26.87,26.87,0,0,1-7-.93,28.75,28.75,0,0,0,0-52.54,26.87,26.87,0,0,1,7-.93A27.19,27.19,0,0,1,79.14,52Z"/><path class="cls-1" d="M52,0a52,52,0,1,0,52,52A52,52,0,0,0,52,0Zm0,85.42A33.47,33.47,0,1,1,85.42,52,33.22,33.22,0,0,1,52,85.42Zm0-60.67a26.87,26.87,0,0,0-7,.93,28.75,28.75,0,0,1,0,52.54,26.87,26.87,0,0,0,7,.93,27.2,27.2,0,0,0,0-54.4Z"/><path class="cls-1" d="M79.14,52A27.19,27.19,0,0,1,52,79.15a26.87,26.87,0,0,1-7-.93,28.75,28.75,0,0,0,0-52.54,26.87,26.87,0,0,1,7-.93A27.19,27.19,0,0,1,79.14,52Z"/></g><g id="Dark-2" data-name="Dark"><path class="cls-2" d="M52,0a52,52,0,1,0,52,52A52,52,0,0,0,52,0Zm0,85.42A33.47,33.47,0,1,1,85.42,52,33.22,33.22,0,0,1,52,85.42Zm0-60.67a26.87,26.87,0,0,0-7,.93,28.75,28.75,0,0,1,0,52.54,26.87,26.87,0,0,0,7,.93,27.2,27.2,0,0,0,0-54.4Z"/><path class="cls-2" d="M79.14,52A27.19,27.19,0,0,1,52,79.15a26.87,26.87,0,0,1-7-.93,28.75,28.75,0,0,0,0-52.54,26.87,26.87,0,0,1,7-.93A27.19,27.19,0,0,1,79.14,52Z"/></g></g></g></svg>