<svg xmlns="http://www.w3.org/2000/svg" viewBox="0 0 120 120"><defs><style>.cls-1{fill:#705746;}</style></defs><title>Dark (2)</title><g id="Layer_2" data-name="Layer 2"><g id="Layer_2-2" data-name="Layer 2"><path class="cls-1" d="M60,26.48A33.47,33.47,0,1,0,93.42,60,33.22,33.22,0,0,0,60,26.48Zm0,60.67a26.87,26.87,0,0,1-7-.93,28.75,28.75,0,0,0,0-52.54,26.87,26.87,0,0,1,7-.93,27.2,27.2,0,0,1,0,54.4Z"/><path class="cls-1" d="M60,0a60,60,0,1,0,60,60A60,60,0,0,0,60,0Zm0,112a52,52,0,1,1,52-52A52,52,0,0,1,60,112Z"/></g></g></svg>