<svg xmlns="http://www.w3.org/2000/svg" viewBox="0 0 120 120"><defs><style>.cls-1{fill:#c32e28;}</style></defs><title>Fighting (2)</title><g id="Layer_2" data-name="Layer 2"><g id="Layer_2-2" data-name="Layer 2"><path class="cls-1" d="M29.58,50.45H34.7V86.06H29.58L23.5,71.57a2.92,2.92,0,0,1-.24-1.2V66.14a2.92,2.92,0,0,1,.24-1.2Z"/><path class="cls-1" d="M89.9,36v50.1H42.1a3.47,3.47,0,0,1-3.46-3.46V36a1.81,1.81,0,0,1,1.81-1.8h5.93A1.8,1.8,0,0,1,48.17,36V54.5h4.46V36a1.79,1.79,0,0,1,1.79-1.8h5.93A1.8,1.8,0,0,1,62.14,36V54.5h4.37V36a1.8,1.8,0,0,1,1.79-1.8h5.93A1.8,1.8,0,0,1,76,36V54.5h4.37V36a1.81,1.81,0,0,1,1.8-1.8h5.92A1.8,1.8,0,0,1,89.9,36Z"/><path class="cls-1" d="M60,0a60,60,0,1,0,60,60A60,60,0,0,0,60,0Zm0,112a52,52,0,1,1,52-52A52,52,0,0,1,60,112Z"/></g></g></svg>