<svg xmlns="http://www.w3.org/2000/svg" viewBox="0 0 104 104"><defs><style>.cls-1{fill:#eb2227;}.cls-2{fill:#c32e28;}</style></defs><title>Fighting (1)</title><g id="Layer_2" data-name="Layer 2"><g id="Layer_1-2" data-name="Layer 1"><g id="Fighting"><path class="cls-1" d="M52,0a52,52,0,1,0,52,52A52,52,0,0,0,52,0ZM26.71,78.06H21.59L15.5,63.57a3.1,3.1,0,0,1-.24-1.2V58.14a3.1,3.1,0,0,1,.24-1.2l6.09-14.49h5.12Zm55.2,0H34.11a3.46,3.46,0,0,1-3.46-3.46V28a1.81,1.81,0,0,1,1.8-1.8h5.93a1.81,1.81,0,0,1,1.8,1.8V46.5h4.45V28a1.8,1.8,0,0,1,1.8-1.8h5.93A1.8,1.8,0,0,1,54.15,28V46.5h4.36V28a1.81,1.81,0,0,1,1.8-1.8h5.93A1.8,1.8,0,0,1,68,28V46.5h4.36V28a1.81,1.81,0,0,1,1.8-1.8h5.93A1.8,1.8,0,0,1,81.91,28Z"/><path class="cls-1" d="M52,0a52,52,0,1,0,52,52A52,52,0,0,0,52,0ZM26.71,78.06H21.59L15.5,63.57a3.1,3.1,0,0,1-.24-1.2V58.14a3.1,3.1,0,0,1,.24-1.2l6.09-14.49h5.12Zm55.2,0H34.11a3.46,3.46,0,0,1-3.46-3.46V28a1.81,1.81,0,0,1,1.8-1.8h5.93a1.81,1.81,0,0,1,1.8,1.8V46.5h4.45V28a1.8,1.8,0,0,1,1.8-1.8h5.93A1.8,1.8,0,0,1,54.15,28V46.5h4.36V28a1.81,1.81,0,0,1,1.8-1.8h5.93A1.8,1.8,0,0,1,68,28V46.5h4.36V28a1.81,1.81,0,0,1,1.8-1.8h5.93A1.8,1.8,0,0,1,81.91,28Z"/></g><g id="Fighting-2" data-name="Fighting"><path class="cls-2" d="M52,0a52,52,0,1,0,52,52A52,52,0,0,0,52,0ZM26.71,78.06H21.59L15.5,63.57a3.1,3.1,0,0,1-.24-1.2V58.14a3.1,3.1,0,0,1,.24-1.2l6.09-14.49h5.12Zm55.2,0H34.11a3.46,3.46,0,0,1-3.46-3.46V28a1.81,1.81,0,0,1,1.8-1.8h5.93a1.81,1.81,0,0,1,1.8,1.8V46.5h4.45V28a1.8,1.8,0,0,1,1.8-1.8h5.93A1.8,1.8,0,0,1,54.15,28V46.5h4.36V28a1.81,1.81,0,0,1,1.8-1.8h5.93A1.8,1.8,0,0,1,68,28V46.5h4.36V28a1.81,1.81,0,0,1,1.8-1.8h5.93A1.8,1.8,0,0,1,81.91,28Z"/></g></g></g></svg>