<svg xmlns="http://www.w3.org/2000/svg" viewBox="0 0 120 120"><defs><style>.cls-1{fill:#ed812d;}</style></defs><title>Fire (2)</title><g id="Layer_2" data-name="Layer 2"><g id="Layer_2-2" data-name="Layer 2"><path class="cls-1" d="M88.75,67.77A26,26,0,0,1,77.61,81.59L77,82a25.86,25.86,0,0,1-10.89,3.31H66a24.2,24.2,0,0,1-4.5-.41,6,6,0,0,0,.61-.08l.44-.08a11.22,11.22,0,0,0,3-1.08c4.35-1.89,6-4.67,6.16-9.59,0-.19,0-.39,0-.59a11.49,11.49,0,1,0-23,0,12.36,12.36,0,0,0,2,7c.78,1.17.9,1.24,1.37,1.94l.43.6.28.36A14.19,14.19,0,0,0,54,84.62c.22.22,1.27,1.1,1.53,1.28a5.94,5.94,0,0,0,1.95,1,27,27,0,0,0,10.32,2h0c1,0,1.93-.07,2.92-.17a28.68,28.68,0,0,0,16.69-7.21A31.15,31.15,0,0,1,29.87,65.05c0-5.33,2.08-11.18,5.63-16.37-.09,1.12-.13,2.26-.14,3.41,0,5.42,1.16,9.68,3.14,12.49l.3.4a40,40,0,0,1-.09-10.64,19.78,19.78,0,0,1,1.5-5.57C45.28,37.9,51.55,36.79,55.14,34a15.53,15.53,0,0,0,5.68-14.59s5.22,3.4,7.05,7c2.42,4.82,1.61,6.91,1.44,9.57h-.08a9.57,9.57,0,0,0-9.42,8.17,9.9,9.9,0,0,0-.11,1.45,9.81,9.81,0,0,0,19.61,0,11,11,0,0,0-1.23-5.41C87.18,46.08,92.89,55.77,88.75,67.77Z"/><path class="cls-1" d="M60,0a60,60,0,1,0,60,60A60,60,0,0,0,60,0Zm0,112a52,52,0,1,1,52-52A52,52,0,0,1,60,112Z"/></g></g></svg>