<svg xmlns="http://www.w3.org/2000/svg" viewBox="0 0 104 104"><defs><style>.cls-1{fill:#eb2227;}.cls-2{fill:#9e8ec3;}</style></defs><title>Flying (1)</title><g id="Layer_2" data-name="Layer 2"><g id="Layer_1-2" data-name="Layer 1"><g id="Flying"><path class="cls-1" d="M53.7,0A52,52,0,1,0,104,50.3,52,52,0,0,0,53.7,0Zm34.6,25.2A24.52,24.52,0,0,1,69,48.9a25.42,25.42,0,0,1-5.83.67H53.28a.29.29,0,0,0-.28.28v1.67a.27.27,0,0,0,.28.28c.37,0,16.21,0,16.21,0h.07A26,26,0,0,0,78,50.29a15.68,15.68,0,0,0,5.38-3.51l2.85-2.89-.32,1.67A19,19,0,0,1,80.22,56,23.37,23.37,0,0,1,69.9,61.28a12.49,12.49,0,0,1-3.23.29H56.41a.18.18,0,0,0-.18.18v1.41a.24.24,0,0,0,.24.24h14A21.94,21.94,0,0,0,75.59,63a21.49,21.49,0,0,0,4.66-1.72s-1.45,6.54-9.9,9.48a10.33,10.33,0,0,1-3.31.53H59.67a.61.61,0,0,0-.61.61v1.65a.61.61,0,0,0,.61.61h4.5a23.15,23.15,0,0,1-18.81,9c-17.33,0-26.51-12.38-26.51-27A24.36,24.36,0,0,1,23.7,42.25c4.76-6,12.51-10.26,17.91-10.84l12.85,0,13.73,0a22.94,22.94,0,0,0,5-.41,22.64,22.64,0,0,0,9.44-4.4l5.64-4.39Z"/><path class="cls-1" d="M53.7,0A52,52,0,1,0,104,50.3,52,52,0,0,0,53.7,0Zm34.6,25.2A24.52,24.52,0,0,1,69,48.9a25.42,25.42,0,0,1-5.83.67H53.28a.29.29,0,0,0-.28.28v1.67a.27.27,0,0,0,.28.28c.37,0,16.21,0,16.21,0h.07A26,26,0,0,0,78,50.29a15.68,15.68,0,0,0,5.38-3.51l2.85-2.89-.32,1.67A19,19,0,0,1,80.22,56,23.37,23.37,0,0,1,69.9,61.28a12.49,12.49,0,0,1-3.23.29H56.41a.18.18,0,0,0-.18.18v1.41a.24.24,0,0,0,.24.24h14A21.94,21.94,0,0,0,75.59,63a21.49,21.49,0,0,0,4.66-1.72s-1.45,6.54-9.9,9.48a10.33,10.33,0,0,1-3.31.53H59.67a.61.61,0,0,0-.61.61v1.65a.61.61,0,0,0,.61.61h4.5a23.15,23.15,0,0,1-18.81,9c-17.33,0-26.51-12.38-26.51-27A24.36,24.36,0,0,1,23.7,42.25c4.76-6,12.51-10.26,17.91-10.84l12.85,0,13.73,0a22.94,22.94,0,0,0,5-.41,22.64,22.64,0,0,0,9.44-4.4l5.64-4.39Z"/></g><g id="Flying-2" data-name="Flying"><path class="cls-2" d="M53.7,0A52,52,0,1,0,104,50.3,52,52,0,0,0,53.7,0Zm34.6,25.2A24.52,24.52,0,0,1,69,48.9a25.42,25.42,0,0,1-5.83.67H53.28a.29.29,0,0,0-.28.28v1.67a.27.27,0,0,0,.28.28c.37,0,16.21,0,16.21,0h.07A26,26,0,0,0,78,50.29a15.68,15.68,0,0,0,5.38-3.51l2.85-2.89-.32,1.67A19,19,0,0,1,80.22,56,23.37,23.37,0,0,1,69.9,61.28a12.49,12.49,0,0,1-3.23.29H56.41a.18.18,0,0,0-.18.18v1.41a.24.24,0,0,0,.24.24h14A21.94,21.94,0,0,0,75.59,63a21.49,21.49,0,0,0,4.66-1.72s-1.45,6.54-9.9,9.48a10.33,10.33,0,0,1-3.31.53H59.67a.61.61,0,0,0-.61.61v1.65a.61.61,0,0,0,.61.61h4.5a23.15,23.15,0,0,1-18.81,9c-17.33,0-26.51-12.38-26.51-27A24.36,24.36,0,0,1,23.7,42.25c4.76-6,12.51-10.26,17.91-10.84l12.85,0,13.73,0a22.94,22.94,0,0,0,5-.41,22.64,22.64,0,0,0,9.44-4.4l5.64-4.39Z"/></g></g></g></svg>