<svg xmlns="http://www.w3.org/2000/svg" viewBox="0 0 120 120"><defs><style>.cls-1{fill:#745797;}</style></defs><title>Ghost (2)</title><g id="Layer_2" data-name="Layer 2"><g id="Layer_2-2" data-name="Layer 2"><path class="cls-1" d="M82.12,84.51,82,84.23a5.28,5.28,0,0,1,1.1-4.55A33.29,33.29,0,0,0,86.36,75,32.88,32.88,0,0,0,85.12,40.8h0A32.85,32.85,0,0,0,25,55.75a33.28,33.28,0,0,0,.73,10.69,0,0,0,0,0,0,0C28.2,80.37,43.33,94,64.7,93a74.29,74.29,0,0,0,24.07-4.85C85.71,88.06,83,87.29,82.12,84.51ZM45.36,61.88a7.92,7.92,0,0,1-3.22-15.15c0,.12,0,.24,0,.36a7.93,7.93,0,0,0,11.14,7.23A7.93,7.93,0,0,1,45.36,61.88Zm25.79,0a7.93,7.93,0,0,1-7.91-7.56,7.93,7.93,0,0,0,11.14-7.23c0-.12,0-.24,0-.36a7.92,7.92,0,0,1-3.22,15.15Z"/><path class="cls-1" d="M44.6,109.65h0s0,0,0,0h0Zm.24.07-.19-.06h0a.16.16,0,0,0,.09,0,2.77,2.77,0,0,0,.41.12Zm-.24-.07h0s0,0,0,0h0Zm.24.07-.19-.06h0a.16.16,0,0,0,.09,0,2.77,2.77,0,0,0,.41.12Zm-.24-.07h0s0,0,0,0h0Zm.24.07-.19-.06h0a.16.16,0,0,0,.09,0,2.77,2.77,0,0,0,.41.12Zm-.29-.08h0Zm.05,0h0s0,0,0,0h0Zm.24.07-.19-.06h0a.16.16,0,0,0,.09,0,2.77,2.77,0,0,0,.41.12Zm-.29-.08h0Zm-.4-.14h0l-.12,0-.1,0h0l.21.07a.48.48,0,0,0,.17,0Zm.69.22-.19-.06h0s0,0,0,0a.16.16,0,0,0,.09,0,2.77,2.77,0,0,0,.41.12Zm-.29-.08s0,0,0,0h0A0,0,0,0,1,44.55,109.64Zm0,0a0,0,0,0,0,0,0h0Zm0,0h0Zm-.42-.14h0l-.12,0-.1,0h0l.21.07a.48.48,0,0,0,.17,0Zm.21.07-.12,0,.21.07h.06Zm.48.15-.19-.06h0s0,0,0,0a.16.16,0,0,0,.09,0,2.77,2.77,0,0,0,.41.12Zm-.29-.08h0Zm0,0a0,0,0,0,1,0,0s0,0,0,0Zm0,0a0,0,0,0,0,0,0h0Zm-.29-.09.21.07h.06l-.15-.05Zm-.13-.05-.12,0-.1,0h0l.21.07a.48.48,0,0,0,.17,0l-.07,0Zm-.71-.23-.73-.25c.28.11.57.21.86.3l-.12,0ZM60,0a60,60,0,1,0,60,60A60,60,0,0,0,60,0Zm0,112c-.5,0-1,0-1.49,0s-1,0-1.48-.06l-1.23-.08c-.81-.06-1.62-.15-2.42-.25-.37,0-.74-.1-1.11-.15-.75-.11-1.5-.24-2.24-.39l-1-.2a4.1,4.1,0,0,1-.48-.1l-.48-.11-1.28-.32-.63-.17q-.32-.08-.63-.18l-.09,0a1.52,1.52,0,0,1-.28-.09l-.09,0-.28-.09-.19-.06h-.1s0,0,0,0h0l-.15-.05-.12,0s0,0,0,0l-.07,0h0l-.12,0-.1,0h0s0,0,0,0l0,0h0a.32.32,0,0,1-.09,0l-.17,0-.06,0h0l-.73-.25-1.19-.44c-.45-.17-.89-.34-1.33-.53l-1-.44-1-.47A52.35,52.35,0,0,1,33,104.4c-.17-.1-.34-.2-.5-.31-.82-.51-1.62-1-2.4-1.6-.17-.11-.33-.23-.5-.36-.47-.34-.94-.69-1.4-1s-.91-.72-1.36-1.09-.73-.61-1.09-.93a8.6,8.6,0,0,1-.64-.58c-.29-.24-.57-.5-.84-.77-.93-.87-1.82-1.78-2.68-2.72l-.42-.47c-.38-.42-.74-.83-1.09-1.26-.19-.22-.38-.44-.55-.67a.79.79,0,0,1-.12-.15L19,91.87c-.19-.23-.37-.47-.54-.7s-.33-.42-.48-.64q-.7-1-1.35-2l-.48-.73c-.17-.26-.34-.53-.5-.8l-.29-.47c-.26-.43-.51-.87-.76-1.31s-.54-1-.79-1.46-.38-.75-.56-1.12-.25-.51-.37-.77q-.48-1-.9-2a2.44,2.44,0,0,0-.1-.24c-.1-.23-.19-.47-.28-.7-.38-.94-.72-1.9-1-2.87-.4-1.22-.75-2.46-1.06-3.72a3.89,3.89,0,0,1-.12-.49c0-.16-.07-.33-.11-.49q-.12-.5-.21-1c-.17-.8-.31-1.61-.44-2.43,0-.08,0-.17,0-.25-.05-.37-.11-.74-.15-1.11s-.1-.85-.15-1.27l-.06-.69c0-.33-.06-.66-.08-1s-.05-.66-.06-1,0-.89-.05-1.34S8,60.45,8,60s0-.9,0-1.34c0-.29,0-.57,0-.85s0-.57,0-.86c0,0,0,0,0,0a0,0,0,0,1,0,0c0-.18,0-.35,0-.53a.14.14,0,0,1,0-.09h0a.48.48,0,0,1,0-.12c0-.34,0-.68.08-1l.09-.86c0-.3.06-.6.1-.9s.08-.6.13-.89.08-.56.13-.84a0,0,0,0,1,0,0c0-.19.06-.39.1-.58.06-.38.13-.77.21-1.15s.11-.55.17-.82.12-.58.19-.87.13-.58.21-.87l.21-.8c.13-.51.28-1,.43-1.52.09-.33.19-.65.3-1s.27-.84.42-1.25c.07-.22.15-.45.24-.67l.2-.51c.1-.27.2-.55.31-.82.2-.52.42-1,.65-1.56.13-.32.28-.64.42-.95a49.44,49.44,0,0,1,2.52-4.78c.14-.25.29-.5.45-.74a1.67,1.67,0,0,1,.18-.28l.46-.74c.22-.36.46-.71.71-1.06s.47-.69.72-1l.17-.24c.12-.18.25-.35.38-.52a3.65,3.65,0,0,1,.24-.31,3.15,3.15,0,0,0,.24-.3l.51-.66c.18-.24.36-.47.55-.7s.41-.47.62-.71l.69-.8c.05-.07.11-.13.16-.19l1-1.09,0,0c.33-.35.67-.69,1-1q1.56-1.56,3.25-3c.17-.15.35-.3.54-.44.38-.32.77-.63,1.16-.92l1.19-.89q.51-.37,1-.72l.83-.56c.27-.19.55-.37.83-.54.88-.56,1.78-1.09,2.69-1.59l.78-.42,1.17-.6c.49-.26,1-.49,1.49-.72l.85-.38c1.3-.57,2.63-1.09,4-1.55.45-.16.91-.31,1.37-.45s1-.32,1.56-.46a51.78,51.78,0,0,1,8.58-1.61L56,8.15l1.17-.07C58.11,8,59.05,8,60,8c.5,0,1,0,1.49,0s1,0,1.48.06l1.23.08c.81.06,1.62.15,2.42.25l1.11.15q.64.09,1.29.21l1,.2c.35.06.69.13,1,.21l1,.23a52.41,52.41,0,0,1,38.49,38.49c.09.33.16.67.23,1s.15.68.21,1,.14.69.2,1,.15.86.21,1.29.11.74.15,1.11c.1.8.19,1.61.25,2.42,0,.41.06.82.08,1.23s.06,1,.06,1.48,0,1,0,1.49A52,52,0,0,1,60,112Zm-15.85-2.5h0l-.12,0-.1,0h0l.21.07a.48.48,0,0,0,.17,0Zm.21.07-.12,0,.21.07h.06Zm.19.07s0,0,0,0h0A0,0,0,0,1,44.55,109.64Zm0,0a0,0,0,0,0,0,0h0Zm0,0h0Zm.27.08-.19-.06h0s0,0,0,0a.16.16,0,0,0,.09,0,2.77,2.77,0,0,0,.41.12Zm-.69-.22h0l-.12,0-.1,0h0l.21.07a.48.48,0,0,0,.17,0Zm.42.14h0Zm0,0a0,0,0,0,0,0,0h0Zm-.17-.06-.12,0,.21.07h.06Zm.48.15-.19-.06h0s0,0,0,0a.16.16,0,0,0,.09,0,2.77,2.77,0,0,0,.41.12Zm-.85-.27-.1,0h0l.21.07Zm.61.2h0s0,0,0,0h0Zm.24.07-.19-.06h0a.16.16,0,0,0,.09,0,2.77,2.77,0,0,0,.41.12Zm-.31-.09a0,0,0,0,0,0,0h0Zm0,0h0Zm0,0h0s0,0,0,0h0Zm.24.07-.19-.06h0a.16.16,0,0,0,.09,0,2.77,2.77,0,0,0,.41.12Zm-.29-.08h0Zm.05,0h0s0,0,0,0h0Zm.24.07-.19-.06h0a.16.16,0,0,0,.09,0,2.77,2.77,0,0,0,.41.12Zm-.24-.07h0s0,0,0,0h0Zm.24.07-.19-.06h0a.16.16,0,0,0,.09,0,2.77,2.77,0,0,0,.41.12Z"/></g></g></svg>