<svg xmlns="http://www.w3.org/2000/svg" viewBox="0 0 104 104"><defs><style>.cls-1{fill:#eb2227;}.cls-2{fill:#745797;}</style></defs><title>Ghost (1)</title><g id="Layer_2" data-name="Layer 2"><g id="Layer_1-2" data-name="Layer 1"><g id="Ghost"><path class="cls-1" d="M42,47a7.92,7.92,0,0,0,3.23-.68,7.91,7.91,0,1,1-11.13-7.59c0,.12,0,.24,0,.36A7.91,7.91,0,0,0,42,47Z"/><path class="cls-1" d="M71.06,46a7.91,7.91,0,0,1-15.82.36,7.93,7.93,0,0,0,11.14-7.23c0-.12,0-.24,0-.36A7.93,7.93,0,0,1,71.06,46Z"/><path class="cls-1" d="M53.7,0A52,52,0,1,0,104,50.3,52,52,0,0,0,53.7,0ZM74.13,76.51c.91,2.78,3.58,3.55,6.64,3.6A74.29,74.29,0,0,1,56.7,85c-21.37,1-36.5-12.59-39-26.49a0,0,0,0,1,0,0A32.85,32.85,0,0,1,77.11,32.8h0a32.82,32.82,0,0,1-2,38.88,5.29,5.29,0,0,0-1.09,4.55A1.87,1.87,0,0,0,74.13,76.51Z"/><path class="cls-1" d="M42,47a7.92,7.92,0,0,0,3.23-.68,7.91,7.91,0,1,1-11.13-7.59c0,.12,0,.24,0,.36A7.91,7.91,0,0,0,42,47Z"/><path class="cls-1" d="M71.06,46a7.91,7.91,0,0,1-15.82.36,7.93,7.93,0,0,0,11.14-7.23c0-.12,0-.24,0-.36A7.93,7.93,0,0,1,71.06,46Z"/><path class="cls-1" d="M53.7,0A52,52,0,1,0,104,50.3,52,52,0,0,0,53.7,0ZM74.13,76.51c.91,2.78,3.58,3.55,6.64,3.6A74.29,74.29,0,0,1,56.7,85c-21.37,1-36.5-12.59-39-26.49a0,0,0,0,1,0,0A32.85,32.85,0,0,1,77.11,32.8h0a32.82,32.82,0,0,1-2,38.88,5.29,5.29,0,0,0-1.09,4.55A1.87,1.87,0,0,0,74.13,76.51Z"/><path class="cls-1" d="M42,47a7.92,7.92,0,0,0,3.23-.68,7.91,7.91,0,1,1-11.13-7.59c0,.12,0,.24,0,.36A7.91,7.91,0,0,0,42,47Z"/><path class="cls-1" d="M71.06,46a7.91,7.91,0,0,1-15.82.36,7.93,7.93,0,0,0,11.14-7.23c0-.12,0-.24,0-.36A7.93,7.93,0,0,1,71.06,46Z"/><path class="cls-1" d="M53.7,0A52,52,0,1,0,104,50.3,52,52,0,0,0,53.7,0ZM74.13,76.51c.91,2.78,3.58,3.55,6.64,3.6A74.29,74.29,0,0,1,56.7,85c-21.37,1-36.5-12.59-39-26.49a0,0,0,0,1,0,0A32.85,32.85,0,0,1,77.11,32.8h0a32.82,32.82,0,0,1-2,38.88,5.29,5.29,0,0,0-1.09,4.55A1.87,1.87,0,0,0,74.13,76.51Z"/></g><g id="Ghost-2" data-name="Ghost"><path class="cls-2" d="M42,47a7.92,7.92,0,0,0,3.23-.68,7.91,7.91,0,1,1-11.13-7.59c0,.12,0,.24,0,.36A7.91,7.91,0,0,0,42,47Z"/><path class="cls-2" d="M71.06,46a7.91,7.91,0,0,1-15.82.36,7.93,7.93,0,0,0,11.14-7.23c0-.12,0-.24,0-.36A7.93,7.93,0,0,1,71.06,46Z"/><path class="cls-2" d="M53.7,0A52,52,0,1,0,104,50.3,52,52,0,0,0,53.7,0ZM74.13,76.51c.91,2.78,3.58,3.55,6.64,3.6A74.29,74.29,0,0,1,56.7,85c-21.37,1-36.5-12.59-39-26.49a0,0,0,0,1,0,0A32.85,32.85,0,0,1,77.11,32.8h0a32.82,32.82,0,0,1-2,38.88,5.29,5.29,0,0,0-1.09,4.55A1.87,1.87,0,0,0,74.13,76.51Z"/></g></g></g></svg>