<svg xmlns="http://www.w3.org/2000/svg" viewBox="0 0 120 120"><defs><style>.cls-1{fill:#7dc24c;}</style></defs><title>Grass (2)</title><g id="Layer_2" data-name="Layer 2"><g id="Layer_2-2" data-name="Layer 2"><path class="cls-1" d="M86.81,29.62c.46,4.52,8.76,38.5-6.43,56.21A31.28,31.28,0,0,1,41.11,93h0l5.93-8.17,26.09-4a1.26,1.26,0,0,0-.23-2.51L51.27,79l9.47-13L77.51,62.6a1.26,1.26,0,0,0-.25-2.5l-12.3,0L78.09,42.07a1.26,1.26,0,0,0-1.92-1.62L60.71,56.12,58,43.31a1.26,1.26,0,0,0-2.49.28l.3,17.53L44.45,72.59,40.94,50.54a1.26,1.26,0,0,0-2.51.22l.47,27.46-6.82,6.91a1.19,1.19,0,0,0-.15.18c-9.21-11.13-9.48-27.07.12-39.11,15.78-19.82,49.73-16.58,54.28-17A.45.45,0,0,1,86.81,29.62Z"/><path class="cls-1" d="M60,0a60,60,0,1,0,60,60A60,60,0,0,0,60,0Zm0,112a52,52,0,1,1,52-52A52,52,0,0,1,60,112Z"/></g></g></svg>