<svg xmlns="http://www.w3.org/2000/svg" viewBox="0 0 104 104"><defs><style>.cls-1{fill:#eb2227;}.cls-2{fill:#96d6d4;}</style></defs><title>Ice (1)</title><g id="Layer_2" data-name="Layer 2"><g id="Layer_1-2" data-name="Layer 1"><g id="Ice"><path class="cls-1" d="M52,0a52,52,0,1,0,52,52A52,52,0,0,0,52,0ZM12.17,52,29.65,41.67,47.87,51.86,30.13,62.33ZM50,76.82,32,87V66.73L50,56.22Zm0-28.47L32,37.84V17.54L50,27.75Zm4.27-20.6L72.34,17.54v20.3L54.29,48.35ZM72.34,87,54.29,76.82V56.22L72.34,66.73Zm1.84-24.7L56.44,51.86,74.66,41.67,92.14,52Z"/><path class="cls-1" d="M52,0a52,52,0,1,0,52,52A52,52,0,0,0,52,0ZM12.17,52,29.65,41.67,47.87,51.86,30.13,62.33ZM50,76.82,32,87V66.73L50,56.22Zm0-28.47L32,37.84V17.54L50,27.75Zm4.27-20.6L72.34,17.54v20.3L54.29,48.35ZM72.34,87,54.29,76.82V56.22L72.34,66.73Zm1.84-24.7L56.44,51.86,74.66,41.67,92.14,52Z"/></g><g id="Ice-2" data-name="Ice"><path class="cls-2" d="M52,0a52,52,0,1,0,52,52A52,52,0,0,0,52,0ZM12.17,52,29.65,41.67,47.87,51.86,30.13,62.33ZM50,76.82,32,87V66.73L50,56.22Zm0-28.47L32,37.84V17.54L50,27.75Zm4.27-20.6L72.34,17.54v20.3L54.29,48.35ZM72.34,87,54.29,76.82V56.22L72.34,66.73Zm1.84-24.7L56.44,51.86,74.66,41.67,92.14,52Z"/></g></g></g></svg>