<svg xmlns="http://www.w3.org/2000/svg" viewBox="0 0 104 104"><defs><style>.cls-1{fill:#eb2227;}.cls-2{fill:#a8a67a;}</style></defs><title>Normal (1)</title><g id="Layer_2" data-name="Layer 2"><g id="Layer_1-2" data-name="Layer 1"><g id="Normal"><path class="cls-1" d="M52,0a52,52,0,1,0,52,52A52,52,0,0,0,52,0Zm0,85.27A33.27,33.27,0,1,1,85.26,52,33.26,33.26,0,0,1,52,85.27Z"/><path class="cls-1" d="M71.13,52A19.13,19.13,0,1,1,52,32.88,19.12,19.12,0,0,1,71.13,52Z"/><path class="cls-1" d="M52,0a52,52,0,1,0,52,52A52,52,0,0,0,52,0Zm0,85.27A33.27,33.27,0,1,1,85.26,52,33.26,33.26,0,0,1,52,85.27Z"/><path class="cls-1" d="M71.13,52A19.13,19.13,0,1,1,52,32.88,19.12,19.12,0,0,1,71.13,52Z"/><path class="cls-1" d="M52,0a52,52,0,1,0,52,52A52,52,0,0,0,52,0Zm0,85.27A33.27,33.27,0,1,1,85.26,52,33.26,33.26,0,0,1,52,85.27Z"/><path class="cls-1" d="M71.13,52A19.13,19.13,0,1,1,52,32.88,19.12,19.12,0,0,1,71.13,52Z"/></g><g id="Normal-2" data-name="Normal"><path class="cls-2" d="M52,0a52,52,0,1,0,52,52A52,52,0,0,0,52,0Zm0,85.27A33.27,33.27,0,1,1,85.26,52,33.26,33.26,0,0,1,52,85.27Z"/><path class="cls-2" d="M71.13,52A19.13,19.13,0,1,1,52,32.88,19.12,19.12,0,0,1,71.13,52Z"/></g></g></g></svg>