<svg xmlns="http://www.w3.org/2000/svg" viewBox="0 0 113.82 114.19"><defs><style>.cls-1{fill:#eb2227;}.cls-2{fill:#ef403c;}.cls-3{fill:#fff;}</style></defs><title>Pokemon</title><g id="Layer_2" data-name="Layer 2"><g id="Layer_1-2" data-name="Layer 1"><g id="Pokemon"><g id="Pokeball"><path class="cls-1" d="M56.91,0A57.13,57.13,0,0,0,0,52.06H34.3a23.28,23.28,0,0,1,45.48,0h34A57.13,57.13,0,0,0,56.91,0Z"/><path class="cls-1" d="M56.91,0A57.13,57.13,0,0,0,0,52.06H34.3a23.28,23.28,0,0,1,45.48,0h34A57.13,57.13,0,0,0,56.91,0Z"/></g><path id="Pokeball-2" data-name="Pokeball" class="cls-1" d="M69.05,52a13,13,0,1,0-.35,10.76A13.08,13.08,0,0,0,69.05,52ZM79.59,62.73a23.28,23.28,0,0,1-45.12,0H.05a57.14,57.14,0,0,0,113.72,0Z"/></g><g id="Pokemon-2" data-name="Pokemon"><g id="Pokeball-3" data-name="Pokeball"><path class="cls-2" d="M56.91,0A57.13,57.13,0,0,0,0,52.06H34.3a23.28,23.28,0,0,1,45.48,0h34A57.13,57.13,0,0,0,56.91,0Z"/></g><path id="Pokeball-4" data-name="Pokeball" class="cls-3" d="M69.05,52a13,13,0,1,0-.35,10.76A13.08,13.08,0,0,0,69.05,52ZM79.59,62.73a23.28,23.28,0,0,1-45.12,0H.05a57.14,57.14,0,0,0,113.72,0Z"/></g></g></g></svg>