<svg xmlns="http://www.w3.org/2000/svg" viewBox="0 0 104 104"><defs><style>.cls-1{fill:#eb2227;}.cls-2{fill:#f05587;}</style></defs><title>Psychic (1)</title><g id="Layer_2" data-name="Layer 2"><g id="Layer_1-2" data-name="Layer 1"><path class="cls-1" d="M52,0a52,52,0,1,0,52,52A52,52,0,0,0,52,0ZM78.54,62.62c-5.72,11.29-21.69,12-30.33,8.21-9.68-4.2-11.09-16.73-7.72-23.48,3.71-7.43,12.94-9,18.39-6.45,4.36,2.06,8.67,7.5,5.28,14.28-2,4.11-7,3.9-8.7,3.7-1.9-.23-5.22-2.17-4.62-4.68a.23.23,0,0,1,.42-.06c1.27,2,6.38,2.87,8.3.26,1.74-2.37,1.22-6.6-1.76-8.12-3.72-1.91-9.29-.59-11.35,3.42-2.5,4.88-.39,12.62,5.14,14.85,4.4,1.77,13.46,2.25,17.46-6s.51-18.29-6.72-22.1C54.25,32.15,38.7,32.79,33,44.8a25,25,0,0,0,3.15,25.94c8.89,10.32,26.93,10.34,32.58,7.82C64.26,85,41.43,87,28.94,73.18,22.39,65.94,17,51.94,26.59,35.42c9.2-15.85,29.06-15.24,40.9-9.47C78.07,31.11,86.37,47.16,78.54,62.62Z"/><path class="cls-1" d="M52,0a52,52,0,1,0,52,52A52,52,0,0,0,52,0ZM78.54,62.62c-5.72,11.29-21.69,12-30.33,8.21-9.68-4.2-11.09-16.73-7.72-23.48,3.71-7.43,12.94-9,18.39-6.45,4.36,2.06,8.67,7.5,5.28,14.28-2,4.11-7,3.9-8.7,3.7-1.9-.23-5.22-2.17-4.62-4.68a.23.23,0,0,1,.42-.06c1.27,2,6.38,2.87,8.3.26,1.74-2.37,1.22-6.6-1.76-8.12-3.72-1.91-9.29-.59-11.35,3.42-2.5,4.88-.39,12.62,5.14,14.85,4.4,1.77,13.46,2.25,17.46-6s.51-18.29-6.72-22.1C54.25,32.15,38.7,32.79,33,44.8a25,25,0,0,0,3.15,25.94c8.89,10.32,26.93,10.34,32.58,7.82C64.26,85,41.43,87,28.94,73.18,22.39,65.94,17,51.94,26.59,35.42c9.2-15.85,29.06-15.24,40.9-9.47C78.07,31.11,86.37,47.16,78.54,62.62Z"/><path class="cls-2" d="M52,0a52,52,0,1,0,52,52A52,52,0,0,0,52,0ZM78.54,62.62c-5.72,11.29-21.69,12-30.33,8.21-9.68-4.2-11.09-16.73-7.72-23.48,3.71-7.43,12.94-9,18.39-6.45,4.36,2.06,8.67,7.5,5.28,14.28-2,4.11-7,3.9-8.7,3.7-1.9-.23-5.22-2.17-4.62-4.68a.23.23,0,0,1,.42-.06c1.27,2,6.38,2.87,8.3.26,1.74-2.37,1.22-6.6-1.76-8.12-3.72-1.91-9.29-.59-11.35,3.42-2.5,4.88-.39,12.62,5.14,14.85,4.4,1.77,13.46,2.25,17.46-6s.51-18.29-6.72-22.1C54.25,32.15,38.7,32.79,33,44.8a25,25,0,0,0,3.15,25.94c8.89,10.32,26.93,10.34,32.58,7.82C64.26,85,41.43,87,28.94,73.18,22.39,65.94,17,51.94,26.59,35.42c9.2-15.85,29.06-15.24,40.9-9.47C78.07,31.11,86.37,47.16,78.54,62.62Z"/></g></g></svg>