<svg xmlns="http://www.w3.org/2000/svg" viewBox="0 0 104 104"><defs><style>.cls-1{fill:#eb2227;}.cls-2{fill:#b5a034;}</style></defs><title>Rock (1)</title><g id="Layer_2" data-name="Layer 2"><g id="Layer_1-2" data-name="Layer 1"><g id="Rock"><path class="cls-1" d="M52,0a52,52,0,1,0,52,52A52,52,0,0,0,52,0ZM19.86,70.78,17.61,53,42.07,27h31.3L62.81,53.43l-30.72,21ZM60.56,84l-22-7.53L63.88,58.81,72.1,70ZM75.82,66.22,67.66,55.13,78.82,27.61l8,26Z"/><path class="cls-1" d="M52,0a52,52,0,1,0,52,52A52,52,0,0,0,52,0ZM19.86,70.78,17.61,53,42.07,27h31.3L62.81,53.43l-30.72,21ZM60.56,84l-22-7.53L63.88,58.81,72.1,70ZM75.82,66.22,67.66,55.13,78.82,27.61l8,26Z"/></g><g id="Rock-2" data-name="Rock"><path class="cls-2" d="M52,0a52,52,0,1,0,52,52A52,52,0,0,0,52,0ZM19.86,70.78,17.61,53,42.07,27h31.3L62.81,53.43l-30.72,21ZM60.56,84l-22-7.53L63.88,58.81,72.1,70ZM75.82,66.22,67.66,55.13,78.82,27.61l8,26Z"/></g></g></g></svg>