<svg xmlns="http://www.w3.org/2000/svg" viewBox="0 0 120 120"><defs><style>.cls-1{fill:#b5a034;}</style></defs><title>Rock (2)</title><g id="Layer_2" data-name="Layer 2"><g id="Layer_2-2" data-name="Layer 2"><polygon class="cls-1" points="71.88 66.8 80.1 77.97 68.56 91.95 46.61 84.41 71.88 66.8"/><polygon class="cls-1" points="70.81 61.42 40.09 82.47 27.86 78.78 25.61 61.03 50.07 35.02 81.37 35.02 70.81 61.42"/><polygon class="cls-1" points="86.82 35.6 94.77 61.63 83.82 74.22 75.66 63.13 86.82 35.6"/><path class="cls-1" d="M60,0a60,60,0,1,0,60,60A60,60,0,0,0,60,0Zm0,112a52,52,0,1,1,52-52A52,52,0,0,1,60,112Z"/></g></g></svg>