<svg xmlns="http://www.w3.org/2000/svg" viewBox="0 0 104 104"><defs><style>.cls-1{fill:#eb2227;}.cls-2{fill:#b8b7ce;}</style></defs><title>Steel (1)</title><g id="Layer_2" data-name="Layer 2"><g id="Layer_1-2" data-name="Layer 1"><g id="Steel"><path class="cls-1" d="M52,0a52,52,0,1,0,52,52A52,52,0,0,0,52,0ZM70.38,83.83H33.63L15.25,52,33.63,20.18H70.38L88.75,52Z"/><circle class="cls-1" cx="52" cy="52" r="15.91" transform="translate(-10.56 90.66) rotate(-76.72)"/><path class="cls-1" d="M52,0a52,52,0,1,0,52,52A52,52,0,0,0,52,0ZM70.38,83.83H33.63L15.25,52,33.63,20.18H70.38L88.75,52Z"/><circle class="cls-1" cx="52" cy="52" r="15.91" transform="translate(-10.56 90.66) rotate(-76.72)"/><path class="cls-1" d="M52,0a52,52,0,1,0,52,52A52,52,0,0,0,52,0ZM70.38,83.83H33.63L15.25,52,33.63,20.18H70.38L88.75,52Z"/><circle class="cls-1" cx="52" cy="52" r="15.91" transform="translate(-10.56 90.66) rotate(-76.72)"/></g><g id="Steel-2" data-name="Steel"><path class="cls-2" d="M52,0a52,52,0,1,0,52,52A52,52,0,0,0,52,0ZM70.38,83.83H33.63L15.25,52,33.63,20.18H70.38L88.75,52Z"/><circle class="cls-2" cx="52" cy="52" r="15.91" transform="translate(-10.56 90.66) rotate(-76.72)"/></g></g></g></svg>