<svg xmlns="http://www.w3.org/2000/svg" viewBox="0 0 104 104"><defs><style>.cls-1{fill:#eb2227;}.cls-2{fill:#6d8bc6;}</style></defs><title>Water (1)</title><g id="Layer_2" data-name="Layer 2"><g id="Layer_1-2" data-name="Layer 1"><g id="Water"><path class="cls-1" d="M54.5,69.87A13.62,13.62,0,0,0,66,63.49,14.45,14.45,0,1,1,41.18,53.37a12.88,12.88,0,0,0-.31,2.87A13.63,13.63,0,0,0,54.5,69.87Z"/><path class="cls-1" d="M52,0a52,52,0,1,0,52,52A52,52,0,0,0,52,0Zm0,86.3C39,86.3,26.39,78.75,26.39,60S51,17.7,52,17.7,77.6,41.17,77.6,60,65,86.3,52,86.3Z"/><path class="cls-1" d="M54.5,69.87A13.62,13.62,0,0,0,66,63.49,14.45,14.45,0,1,1,41.18,53.37a12.88,12.88,0,0,0-.31,2.87A13.63,13.63,0,0,0,54.5,69.87Z"/><path class="cls-1" d="M52,0a52,52,0,1,0,52,52A52,52,0,0,0,52,0Zm0,86.3C39,86.3,26.39,78.75,26.39,60S51,17.7,52,17.7,77.6,41.17,77.6,60,65,86.3,52,86.3Z"/><path class="cls-1" d="M54.5,69.87A13.62,13.62,0,0,0,66,63.49,14.45,14.45,0,1,1,41.18,53.37a12.88,12.88,0,0,0-.31,2.87A13.63,13.63,0,0,0,54.5,69.87Z"/><path class="cls-1" d="M52,0a52,52,0,1,0,52,52A52,52,0,0,0,52,0Zm0,86.3C39,86.3,26.39,78.75,26.39,60S51,17.7,52,17.7,77.6,41.17,77.6,60,65,86.3,52,86.3Z"/></g><g id="Water-2" data-name="Water"><path class="cls-2" d="M54.5,69.87A13.62,13.62,0,0,0,66,63.49,14.45,14.45,0,1,1,41.18,53.37a12.88,12.88,0,0,0-.31,2.87A13.63,13.63,0,0,0,54.5,69.87Z"/><path class="cls-2" d="M52,0a52,52,0,1,0,52,52A52,52,0,0,0,52,0Zm0,86.3C39,86.3,26.39,78.75,26.39,60S51,17.7,52,17.7,77.6,41.17,77.6,60,65,86.3,52,86.3Z"/></g></g></g></svg>