<svg xmlns="http://www.w3.org/2000/svg" viewBox="0 0 120 120"><defs><style>.cls-1{fill:#6d8bc6;}</style></defs><title>Water (2)</title><g id="Layer_2" data-name="Layer 2"><g id="Layer_2-2" data-name="Layer 2"><path class="cls-1" d="M60,25.7C59,25.7,34.39,49.17,34.39,68S47,94.3,60,94.3,85.61,86.75,85.61,68,61,25.7,60,25.7Zm-.4,60.12A14.44,14.44,0,0,1,49.18,61.37a13.5,13.5,0,0,0-.31,2.87,13.64,13.64,0,0,0,25.18,7.25A14.44,14.44,0,0,1,59.6,85.82Z"/><path class="cls-1" d="M60,0a60,60,0,1,0,60,60A60,60,0,0,0,60,0Zm0,112a52,52,0,1,1,52-52A52,52,0,0,1,60,112Z"/></g></g></svg>