<svg xmlns="http://www.w3.org/2000/svg" viewBox="0 0 104 104"><defs><style>.cls-1{fill:#eb2227;}.cls-2{fill:#a6ba39;}</style></defs><title>Bug (1)</title><g id="Layer_2" data-name="Layer 2"><g id="Layer_1-2" data-name="Layer 1"><g id="Bug"><path class="cls-1" d="M96.19,24.59h0A52.17,52.17,0,0,0,78.4,7.2c-.94-.57-1.9-1.09-2.88-1.58a52,52,0,0,0-46.65-.2C27.76,6,26.67,6.56,25.6,7.2A52,52,0,1,0,96.19,24.59ZM36.78,14.3,39.06,12l8.45,8.45A31.75,31.75,0,0,1,52,20.15a30.38,30.38,0,0,1,4.6.34L65.06,12l2.29,2.28-7,7a31.18,31.18,0,0,1,9.25,4.21A25.65,25.65,0,0,1,66.8,29a0,0,0,0,0,0,0,31.66,31.66,0,0,0-3.67,3.16h0a18.63,18.63,0,0,1-21.7.09h0a32.46,32.46,0,0,0-3.92-3.38h0a26.12,26.12,0,0,1-2.83-3.57,31.51,31.51,0,0,1,9.08-4.06ZM20.16,52A31.74,31.74,0,0,1,30.72,28.32a26.26,26.26,0,0,0,16.48,12h0a31.9,31.9,0,0,1-9.67,40.08A31.84,31.84,0,0,1,20.16,52Zm33.67,2.65A31.7,31.7,0,0,1,57.3,40.17a26.42,26.42,0,0,0,16-11.86,31.85,31.85,0,0,1-6.57,51.92A31.79,31.79,0,0,1,53.83,54.65Z"/><path class="cls-1" d="M96.19,24.59h0A52.17,52.17,0,0,0,78.4,7.2c-.94-.57-1.9-1.09-2.88-1.58a52,52,0,0,0-46.65-.2C27.76,6,26.67,6.56,25.6,7.2A52,52,0,1,0,96.19,24.59ZM36.78,14.3,39.06,12l8.45,8.45A31.75,31.75,0,0,1,52,20.15a30.38,30.38,0,0,1,4.6.34L65.06,12l2.29,2.28-7,7a31.18,31.18,0,0,1,9.25,4.21A25.65,25.65,0,0,1,66.8,29a0,0,0,0,0,0,0,31.66,31.66,0,0,0-3.67,3.16h0a18.63,18.63,0,0,1-21.7.09h0a32.46,32.46,0,0,0-3.92-3.38h0a26.12,26.12,0,0,1-2.83-3.57,31.51,31.51,0,0,1,9.08-4.06ZM20.16,52A31.74,31.74,0,0,1,30.72,28.32a26.26,26.26,0,0,0,16.48,12h0a31.9,31.9,0,0,1-9.67,40.08A31.84,31.84,0,0,1,20.16,52Zm33.67,2.65A31.7,31.7,0,0,1,57.3,40.17a26.42,26.42,0,0,0,16-11.86,31.85,31.85,0,0,1-6.57,51.92A31.79,31.79,0,0,1,53.83,54.65Z"/></g><g id="Bug-2" data-name="Bug"><path class="cls-2" d="M96.19,24.59h0A52.17,52.17,0,0,0,78.4,7.2c-.94-.57-1.9-1.09-2.88-1.58a52,52,0,0,0-46.65-.2C27.76,6,26.67,6.56,25.6,7.2A52,52,0,1,0,96.19,24.59ZM36.78,14.3,39.06,12l8.45,8.45A31.75,31.75,0,0,1,52,20.15a30.38,30.38,0,0,1,4.6.34L65.06,12l2.29,2.28-7,7a31.18,31.18,0,0,1,9.25,4.21A25.65,25.65,0,0,1,66.8,29a0,0,0,0,0,0,0,31.66,31.66,0,0,0-3.67,3.16h0a18.63,18.63,0,0,1-21.7.09h0a32.46,32.46,0,0,0-3.92-3.38h0a26.12,26.12,0,0,1-2.83-3.57,31.51,31.51,0,0,1,9.08-4.06ZM20.16,52A31.74,31.74,0,0,1,30.72,28.32a26.26,26.26,0,0,0,16.48,12h0a31.9,31.9,0,0,1-9.67,40.08A31.84,31.84,0,0,1,20.16,52Zm33.67,2.65A31.7,31.7,0,0,1,57.3,40.17a26.42,26.42,0,0,0,16-11.86,31.85,31.85,0,0,1-6.57,51.92A31.79,31.79,0,0,1,53.83,54.65Z"/></g></g></g></svg>