<svg xmlns="http://www.w3.org/2000/svg" viewBox="0 0 120 120"><defs><style>.cls-1{fill:#a6ba39;}</style></defs><title>Bug (2)</title><g id="Layer_2" data-name="Layer 2"><g id="Layer_2-2" data-name="Layer 2"><path class="cls-1" d="M55.21,48.29a31.9,31.9,0,0,1-9.67,40.08,31.84,31.84,0,0,1-6.82-52,26.26,26.26,0,0,0,16.48,12Z"/><path class="cls-1" d="M71.11,40.18a18.63,18.63,0,0,1-21.7.09h0a32.46,32.46,0,0,0-3.92-3.38,0,0,0,0,1,0,0,26.12,26.12,0,0,1-2.83-3.57,31.51,31.51,0,0,1,9.08-4.06L44.78,22.3,47.06,20l8.45,8.45A31.75,31.75,0,0,1,60,28.15a30.38,30.38,0,0,1,4.6.34L73.06,20l2.29,2.28-7,7a31.18,31.18,0,0,1,9.25,4.21A25.65,25.65,0,0,1,74.8,37h0a31.66,31.66,0,0,0-3.67,3.16Z"/><path class="cls-1" d="M91.84,60A31.81,31.81,0,0,1,74.72,88.23,31.87,31.87,0,0,1,65.3,48.17a26.42,26.42,0,0,0,16-11.86A31.8,31.8,0,0,1,91.84,60Z"/><path class="cls-1" d="M60,0a60,60,0,1,0,60,60A60,60,0,0,0,60,0Zm51.71,65.48c-.06.64-.14,1.27-.24,1.9,0,.32-.08.64-.14,1s-.13.78-.2,1.17c-.26,1.44-.59,2.87-1,4.27-.11.42-.23.84-.36,1.25-.18.6-.37,1.19-.57,1.78s-.41,1.17-.64,1.75c-.11.31-.23.62-.36.92s-.31.77-.48,1.15-.33.77-.51,1.14a49,49,0,0,1-3,5.62c-.18.3-.36.6-.56.89a49,49,0,0,1-2.94,4.08c-.23.3-.47.59-.72.89l-.8.93c-.53.62-1.09,1.23-1.66,1.82-.31.33-.63.66-1,1l-.92.89c-.42.41-.86.8-1.3,1.18s-.63.55-1,.82-.48.41-.73.6c-.77.63-1.55,1.23-2.36,1.8-.25.18-.5.36-.76.53-.48.34-1,.67-1.46,1l-.85.53c-.52.33-1.06.65-1.6,1s-.81.46-1.22.67-.64.34-1,.5a1.13,1.13,0,0,1-.22.11c-.22.12-.45.23-.68.34l-.55.26c-.49.23-1,.45-1.48.66-.33.15-.67.29-1,.42q-.81.33-1.62.63l-1.25.44c-.63.22-1.27.42-1.91.6l-.54.16c-.56.16-1.12.31-1.68.44-.34.09-.67.17-1,.24-.6.14-1.22.27-1.83.38l-1,.17c-.38.06-.76.13-1.15.18-.57.09-1.15.16-1.73.22l-.87.09c-.29,0-.59.06-.88.08l-1.05.07c-1,.06-2,.09-3,.09-1.22,0-2.43,0-3.63-.13l-1.69-.14c-.87-.09-1.74-.2-2.6-.33-.53-.08-1-.17-1.58-.27s-1.28-.25-1.91-.39q-.63-.13-1.26-.3c-.4-.09-.79-.2-1.19-.31l-1-.28c-.38-.11-.76-.22-1.13-.35s-.66-.21-1-.33-1-.33-1.43-.52c-.28-.1-.57-.21-.85-.33-1.35-.53-2.68-1.12-4-1.78l-1-.5c-.34-.17-.67-.35-1-.54-.86-.47-1.7-1-2.52-1.49l-.71-.46c-.48-.31-.95-.63-1.42-1l-1.28-.92-.1-.08q-.69-.51-1.35-1l-1.22-1c-.6-.51-1.19-1-1.76-1.58-.33-.29-.65-.6-1-.92s-.5-.49-.74-.75-.49-.51-.73-.76-.65-.69-1-1l-.63-.73L19.83,93c-.26-.31-.51-.63-.77-1l-.58-.77c-.25-.31-.48-.63-.71-1s-.41-.56-.6-.85-.46-.67-.68-1-.39-.59-.57-.89L15.53,87c-.22-.35-.43-.71-.64-1.08s-.52-.93-.77-1.4-.36-.68-.53-1q-.5-.94-.93-1.92c-.16-.35-.31-.7-.46-1.05-.23-.52-.45-1.06-.65-1.59s-.41-1.07-.6-1.61c-.13-.36-.25-.72-.37-1.08s-.29-.9-.42-1.36c-.09-.28-.17-.57-.25-.85-.18-.63-.34-1.27-.49-1.91-.05-.18-.09-.36-.13-.55-.16-.69-.3-1.38-.43-2.08-.09-.51-.18-1-.26-1.54,0-.32-.09-.63-.13-1l-.12-1c-.06-.49-.11-1-.15-1.48,0-.31,0-.63-.07-.94s-.06-.89-.08-1.33,0-.61,0-.92S8,60.45,8,60s0-1,0-1.48c0,0,0,0,0,0a0,0,0,0,1,0,0c0-.43,0-.86.05-1.29s.05-.89.09-1.34c.06-.84.15-1.68.26-2.51,0-.32.08-.64.13-1l0-.18c.13-.89.29-1.78.47-2.66,0-.27.11-.53.17-.79l.18-.79c.32-1.36.7-2.71,1.13-4,.12-.38.25-.77.39-1.15.18-.53.38-1.06.59-1.59.12-.31.24-.61.37-.92s.35-.86.54-1.28.46-1,.7-1.52c.14-.29.28-.58.43-.86l.4-.78q.4-.76.84-1.53c.29-.5.59-1,.89-1.5s.56-.9.85-1.34l.72-1.07c.15-.21.29-.42.44-.62.3-.42.61-.83.92-1.24s.64-.85,1-1.26l.46-.56c.34-.41.68-.81,1-1.2s.89-1,1.36-1.48.73-.75,1.11-1.12l1.15-1.09a5.14,5.14,0,0,1,.42-.38c.27-.26.55-.51.83-.75l1.13-.95,1.25-1c.42-.33.84-.65,1.27-.95l1.05-.74c.37-.26.74-.5,1.11-.74l.47-.3q1.45-.93,3-1.74.78-.42,1.56-.81a1.13,1.13,0,0,1,.22-.11c.39-.2.79-.39,1.19-.57l1.16-.52c.52-.23,1-.45,1.58-.66l.08,0c.56-.22,1.13-.43,1.7-.63l.94-.32c.53-.18,1.06-.35,1.59-.5l1.25-.35q.87-.24,1.77-.45c.62-.14,1.26-.28,1.89-.39.42-.09.84-.16,1.26-.23l.67-.11,1.65-.22,1.21-.13,1.29-.11.27,0c.38,0,.77,0,1.16-.06Q58.83,8,60,8t2.34.06c.23,0,.45,0,.67,0l.66,0,.72.06,1.08.1c.49.05,1,.11,1.48.18H67l.18,0h0l1.41.21.74.13q2.27.4,4.47,1c.35.09.69.19,1,.3q.77.22,1.53.48c.49.16,1,.33,1.46.51q1.59.57,3.12,1.26l.47.21c.69.31,1.38.64,2,1,.43.21.85.43,1.27.66s1.08.6,1.61.92l1.35.82,1.31.86c.33.21.65.44,1,.67a4.84,4.84,0,0,1,.46.33c.8.57,1.59,1.18,2.35,1.8.4.33.8.66,1.19,1A50.81,50.81,0,0,1,99.32,26c.54.63,1.07,1.27,1.59,1.93.37.47.73,1,1.08,1.43s.57.78.84,1.18.48.7.71,1.06.37.56.54.84c.51.81,1,1.64,1.46,2.48.24.42.46.84.68,1.27s.44.86.65,1.3.43.9.63,1.36.35.79.51,1.19q.64,1.5,1.17,3.06c.09.24.17.48.24.73.19.56.37,1.14.53,1.71q.1.32.18.63c.11.39.21.77.3,1.16q.28,1.1.51,2.22c.18.88.34,1.77.47,2.66s.21,1.49.29,2.24c0,.46.1.92.13,1.38,0,.23,0,.47,0,.7.05.67.08,1.34.09,2,0,.49,0,1,0,1.48,0,.86,0,1.72-.07,2.57S111.81,64.51,111.71,65.48Z"/></g></g></svg>