<svg xmlns="http://www.w3.org/2000/svg" viewBox="0 0 104 104"><defs><style>.cls-1{fill:#eb2227;}.cls-2{fill:#6357a5;}</style></defs><title>Dragon (1)</title><g id="Layer_2" data-name="Layer 2"><g id="Layer_1-2" data-name="Layer 1"><g id="Dragin"><path class="cls-1" d="M52,0a52,52,0,1,0,52,52A52,52,0,0,0,52,0ZM37.76,81.66h0A31.89,31.89,0,0,1,21,60.1c2.48-2.25,6.67-4.07,13.14-5.7,4.32-1.09,8.68-1.59,11.64-1.12-2.59,3.85-4.8,8.5-4.8,13.2a23.17,23.17,0,0,0,4,13,28.55,28.55,0,0,0,5,5.59A31.5,31.5,0,0,1,37.76,81.66Zm40.88-9.22C74.93,77.82,69,82.32,62.11,82.67c-7.93.44-13.84-4.23-16.64-12-.09-.24-.17-.48-.25-.73a9.22,9.22,0,0,0,1,0c15.26-.59,17.36-4.16,19.89-11.55.95-6.06.12-8.81-1.59-11.64C62.1,42.7,58,40.54,56.16,36.27a.35.35,0,0,0-.66,0c-5.08,15-20.2,9-31.73,13.37a10.29,10.29,0,0,0-3.65,2.14A31.89,31.89,0,0,1,41.53,23.06a39.76,39.76,0,0,0,4.39-3.31c6.39-5.56,8.73-9.81,8.25-13.33a31.87,31.87,0,0,1,.9,9.57,13.78,13.78,0,0,1-1.25,5.36A31.9,31.9,0,0,1,83.87,53.19C83.87,59.74,82.45,66.92,78.64,72.44ZM33.84,36.3a15.61,15.61,0,0,0-3.44,6.75s4.68-.71,7.19-2.83c4.17-3.52,2.63-7.1,2.63-7.1A9.73,9.73,0,0,0,33.84,36.3Z"/><path class="cls-1" d="M52,0a52,52,0,1,0,52,52A52,52,0,0,0,52,0ZM37.76,81.66h0A31.89,31.89,0,0,1,21,60.1c2.48-2.25,6.67-4.07,13.14-5.7,4.32-1.09,8.68-1.59,11.64-1.12-2.59,3.85-4.8,8.5-4.8,13.2a23.17,23.17,0,0,0,4,13,28.55,28.55,0,0,0,5,5.59A31.5,31.5,0,0,1,37.76,81.66Zm40.88-9.22C74.93,77.82,69,82.32,62.11,82.67c-7.93.44-13.84-4.23-16.64-12-.09-.24-.17-.48-.25-.73a9.22,9.22,0,0,0,1,0c15.26-.59,17.36-4.16,19.89-11.55.95-6.06.12-8.81-1.59-11.64C62.1,42.7,58,40.54,56.16,36.27a.35.35,0,0,0-.66,0c-5.08,15-20.2,9-31.73,13.37a10.29,10.29,0,0,0-3.65,2.14A31.89,31.89,0,0,1,41.53,23.06a39.76,39.76,0,0,0,4.39-3.31c6.39-5.56,8.73-9.81,8.25-13.33a31.87,31.87,0,0,1,.9,9.57,13.78,13.78,0,0,1-1.25,5.36A31.9,31.9,0,0,1,83.87,53.19C83.87,59.74,82.45,66.92,78.64,72.44ZM33.84,36.3a15.61,15.61,0,0,0-3.44,6.75s4.68-.71,7.19-2.83c4.17-3.52,2.63-7.1,2.63-7.1A9.73,9.73,0,0,0,33.84,36.3Z"/></g><g id="Dragin-2" data-name="Dragin"><path class="cls-2" d="M52,0a52,52,0,1,0,52,52A52,52,0,0,0,52,0ZM37.76,81.66h0A31.89,31.89,0,0,1,21,60.1c2.48-2.25,6.67-4.07,13.14-5.7,4.32-1.09,8.68-1.59,11.64-1.12-2.59,3.85-4.8,8.5-4.8,13.2a23.17,23.17,0,0,0,4,13,28.55,28.55,0,0,0,5,5.59A31.5,31.5,0,0,1,37.76,81.66Zm40.88-9.22C74.93,77.82,69,82.32,62.11,82.67c-7.93.44-13.84-4.23-16.64-12-.09-.24-.17-.48-.25-.73a9.22,9.22,0,0,0,1,0c15.26-.59,17.36-4.16,19.89-11.55.95-6.06.12-8.81-1.59-11.64C62.1,42.7,58,40.54,56.16,36.27a.35.35,0,0,0-.66,0c-5.08,15-20.2,9-31.73,13.37a10.29,10.29,0,0,0-3.65,2.14A31.89,31.89,0,0,1,41.53,23.06a39.76,39.76,0,0,0,4.39-3.31c6.39-5.56,8.73-9.81,8.25-13.33a31.87,31.87,0,0,1,.9,9.57,13.78,13.78,0,0,1-1.25,5.36A31.9,31.9,0,0,1,83.87,53.19C83.87,59.74,82.45,66.92,78.64,72.44ZM33.84,36.3a15.61,15.61,0,0,0-3.44,6.75s4.68-.71,7.19-2.83c4.17-3.52,2.63-7.1,2.63-7.1A9.73,9.73,0,0,0,33.84,36.3Z"/></g></g></g></svg>