<svg xmlns="http://www.w3.org/2000/svg" viewBox="0 0 120 120"><defs><style>.cls-1{fill:#6357a5;}</style></defs><title>Dragon (2)</title><g id="Layer_2" data-name="Layer 2"><g id="Layer_2-2" data-name="Layer 2"><path class="cls-1" d="M58.06,93a31.5,31.5,0,0,1-12.3-3.38h0A31.89,31.89,0,0,1,29,68.1c2.48-2.25,6.67-4.07,13.14-5.7,4.32-1.09,8.68-1.59,11.64-1.12-2.59,3.85-4.8,8.5-4.8,13.2a23.17,23.17,0,0,0,4,13A28.55,28.55,0,0,0,58.06,93Z"/><path class="cls-1" d="M61.82,29.35A13.78,13.78,0,0,0,63.07,24a31.87,31.87,0,0,0-.9-9.57c.48,3.52-1.86,7.77-8.25,13.33a39.76,39.76,0,0,1-4.39,3.31A31.89,31.89,0,0,0,28.12,59.8a10.29,10.29,0,0,1,3.65-2.14C43.3,53.3,58.42,59.26,63.5,44.29a.35.35,0,0,1,.66,0c1.84,4.27,5.94,6.43,8.4,10.49,1.71,2.83,2.54,5.58,1.59,11.64-2.53,7.39-4.63,11-19.89,11.55a9.22,9.22,0,0,1-1,0c.08.25.16.49.25.73,2.8,7.8,8.71,12.47,16.64,12,6.84-.35,12.82-4.85,16.53-10.23s5.23-12.7,5.23-19.25A31.9,31.9,0,0,0,61.82,29.35ZM45.59,48.22c-2.51,2.12-7.19,2.83-7.19,2.83a15.61,15.61,0,0,1,3.44-6.75,9.73,9.73,0,0,1,6.38-3.18S49.76,44.7,45.59,48.22Z"/><path class="cls-1" d="M60,0a60,60,0,1,0,60,60A60,60,0,0,0,60,0Zm0,112a52,52,0,1,1,52-52A52,52,0,0,1,60,112Z"/></g></g></svg>