<svg xmlns="http://www.w3.org/2000/svg" viewBox="0 0 104 104"><defs><style>.cls-1{fill:#eb2227;}.cls-2{fill:#f7d02e;}</style></defs><title>Electric (1)</title><g id="Layer_2" data-name="Layer 2"><g id="Layer_1-2" data-name="Layer 1"><g id="Electric"><path class="cls-1" d="M52,0a52,52,0,1,0,52,52A52,52,0,0,0,52,0ZM65,86.78l-40.89-43H44L34.43,22.89H61.24l11,36.39H57.07Z"/><path class="cls-1" d="M52,0a52,52,0,1,0,52,52A52,52,0,0,0,52,0ZM65,86.78l-40.89-43H44L34.43,22.89H61.24l11,36.39H57.07Z"/></g><g id="Electric-2" data-name="Electric"><path class="cls-2" d="M52,0a52,52,0,1,0,52,52A52,52,0,0,0,52,0ZM65,86.78l-40.89-43H44L34.43,22.89H61.24l11,36.39H57.07Z"/></g></g></g></svg>