<svg xmlns="http://www.w3.org/2000/svg" viewBox="0 0 120 120"><defs><style>.cls-1{fill:#d684ac;}</style></defs><title>Fairy (2)</title><g id="Layer_2" data-name="Layer 2"><g id="Layer_2-2" data-name="Layer 2"><path class="cls-1" d="M96.33,60,80.86,50.4,82.72,40a1.36,1.36,0,0,0-1.67-1.57L70.72,41,61,24.62a1,1,0,0,0-2,0L49.25,41,38.93,38.4A1.37,1.37,0,0,0,37.25,40L39.12,50.4,23.64,60a1,1,0,0,0,0,1.95l15.48,9.59L37.25,82a1.37,1.37,0,0,0,1.68,1.57l10.32-2.61L59,97.31a1,1,0,0,0,2,0l9.76-16.39,10.33,2.61A1.36,1.36,0,0,0,82.72,82L80.86,71.53l15.47-9.59A1,1,0,0,0,96.33,60ZM74.39,61.91,66,66.52a1.09,1.09,0,0,0-.42.43l-4.62,8.43a1.07,1.07,0,0,1-1.88,0L54.43,67a1.11,1.11,0,0,0-.43-.43l-8.42-4.61a1.08,1.08,0,0,1,0-1.89L54,55.41a1.11,1.11,0,0,0,.43-.43l4.62-8.42a1.07,1.07,0,0,1,1.88,0L65.55,55a1.09,1.09,0,0,0,.42.43L74.39,60A1.08,1.08,0,0,1,74.39,61.91Z"/><path class="cls-1" d="M60,0a60,60,0,1,0,60,60A60,60,0,0,0,60,0Zm52,61.34A52,52,0,0,1,8,60.15V60c0-.12,0-.25,0-.37a52,52,0,0,1,104,1C112,60.9,112,61.12,112,61.34Z"/></g></g></svg>