<svg xmlns="http://www.w3.org/2000/svg" viewBox="0 0 104 104"><defs><style>.cls-1{fill:#eb2227;}.cls-2{fill:#d684ac;}</style></defs><title>Fairy (1)</title><g id="Layer_2" data-name="Layer 2"><g id="Layer_1-2" data-name="Layer 1"><g id="Fairy"><path class="cls-1" d="M52,0a52,52,0,1,0,52,52A52,52,0,0,0,52,0ZM88.34,53,72.86,62.56,74.73,73a1.37,1.37,0,0,1-1.68,1.57L62.73,72,53,88.34a1,1,0,0,1-1.95,0L41.26,72,30.94,74.56A1.37,1.37,0,0,1,29.26,73l1.87-10.43L15.65,53a1,1,0,0,1,0-1.95l15.48-9.59L29.26,31a1.37,1.37,0,0,1,1.68-1.57L41.26,32,51,15.65a1,1,0,0,1,1.95,0L62.73,32l10.32-2.61A1.37,1.37,0,0,1,74.73,31L72.86,41.43,88.34,51A1,1,0,0,1,88.34,53Z"/><path class="cls-1" d="M66.4,52.94,58,57.55a1.11,1.11,0,0,0-.43.43l-4.61,8.43a1.08,1.08,0,0,1-1.89,0L46.44,58a1.11,1.11,0,0,0-.43-.43l-8.42-4.61a1.08,1.08,0,0,1,0-1.89L46,46.44a1.11,1.11,0,0,0,.43-.43l4.61-8.42a1.08,1.08,0,0,1,1.89,0L57.55,46a1.11,1.11,0,0,0,.43.43l8.42,4.61A1.08,1.08,0,0,1,66.4,52.94Z"/><path class="cls-1" d="M52,0a52,52,0,1,0,52,52A52,52,0,0,0,52,0ZM88.34,53,72.86,62.56,74.73,73a1.37,1.37,0,0,1-1.68,1.57L62.73,72,53,88.34a1,1,0,0,1-1.95,0L41.26,72,30.94,74.56A1.37,1.37,0,0,1,29.26,73l1.87-10.43L15.65,53a1,1,0,0,1,0-1.95l15.48-9.59L29.26,31a1.37,1.37,0,0,1,1.68-1.57L41.26,32,51,15.65a1,1,0,0,1,1.95,0L62.73,32l10.32-2.61A1.37,1.37,0,0,1,74.73,31L72.86,41.43,88.34,51A1,1,0,0,1,88.34,53Z"/><path class="cls-1" d="M66.4,52.94,58,57.55a1.11,1.11,0,0,0-.43.43l-4.61,8.43a1.08,1.08,0,0,1-1.89,0L46.44,58a1.11,1.11,0,0,0-.43-.43l-8.42-4.61a1.08,1.08,0,0,1,0-1.89L46,46.44a1.11,1.11,0,0,0,.43-.43l4.61-8.42a1.08,1.08,0,0,1,1.89,0L57.55,46a1.11,1.11,0,0,0,.43.43l8.42,4.61A1.08,1.08,0,0,1,66.4,52.94Z"/><path class="cls-1" d="M52,0a52,52,0,1,0,52,52A52,52,0,0,0,52,0ZM88.34,53,72.86,62.56,74.73,73a1.37,1.37,0,0,1-1.68,1.57L62.73,72,53,88.34a1,1,0,0,1-1.95,0L41.26,72,30.94,74.56A1.37,1.37,0,0,1,29.26,73l1.87-10.43L15.65,53a1,1,0,0,1,0-1.95l15.48-9.59L29.26,31a1.37,1.37,0,0,1,1.68-1.57L41.26,32,51,15.65a1,1,0,0,1,1.95,0L62.73,32l10.32-2.61A1.37,1.37,0,0,1,74.73,31L72.86,41.43,88.34,51A1,1,0,0,1,88.34,53Z"/><path class="cls-1" d="M66.4,52.94,58,57.55a1.11,1.11,0,0,0-.43.43l-4.61,8.43a1.08,1.08,0,0,1-1.89,0L46.44,58a1.11,1.11,0,0,0-.43-.43l-8.42-4.61a1.08,1.08,0,0,1,0-1.89L46,46.44a1.11,1.11,0,0,0,.43-.43l4.61-8.42a1.08,1.08,0,0,1,1.89,0L57.55,46a1.11,1.11,0,0,0,.43.43l8.42,4.61A1.08,1.08,0,0,1,66.4,52.94Z"/></g><g id="Fairy-2" data-name="Fairy"><path class="cls-2" d="M52,0a52,52,0,1,0,52,52A52,52,0,0,0,52,0ZM88.34,53,72.86,62.56,74.73,73a1.37,1.37,0,0,1-1.68,1.57L62.73,72,53,88.34a1,1,0,0,1-1.95,0L41.26,72,30.94,74.56A1.37,1.37,0,0,1,29.26,73l1.87-10.43L15.65,53a1,1,0,0,1,0-1.95l15.48-9.59L29.26,31a1.37,1.37,0,0,1,1.68-1.57L41.26,32,51,15.65a1,1,0,0,1,1.95,0L62.73,32l10.32-2.61A1.37,1.37,0,0,1,74.73,31L72.86,41.43,88.34,51A1,1,0,0,1,88.34,53Z"/><path class="cls-2" d="M66.4,52.94,58,57.55a1.11,1.11,0,0,0-.43.43l-4.61,8.43a1.08,1.08,0,0,1-1.89,0L46.44,58a1.11,1.11,0,0,0-.43-.43l-8.42-4.61a1.08,1.08,0,0,1,0-1.89L46,46.44a1.11,1.11,0,0,0,.43-.43l4.61-8.42a1.08,1.08,0,0,1,1.89,0L57.55,46a1.11,1.11,0,0,0,.43.43l8.42,4.61A1.08,1.08,0,0,1,66.4,52.94Z"/></g></g></g></svg>