<svg xmlns="http://www.w3.org/2000/svg" viewBox="0 0 104 104"><defs><style>.cls-1{fill:#eb2227;}.cls-2{fill:#ed812d;}</style></defs><title>Fire (1)</title><g id="Layer_2" data-name="Layer 2"><g id="Layer_1-2" data-name="Layer 1"><g id="Fire"><path class="cls-1" d="M52,0a52,52,0,1,0,52,52A52,52,0,0,0,52,0ZM80.75,59.77A26,26,0,0,1,69.61,73.59L69,74a25.86,25.86,0,0,1-10.89,3.31H58a24.2,24.2,0,0,1-4.5-.41,6,6,0,0,0,.61-.08l.44-.08a11.22,11.22,0,0,0,3-1.08c4.35-1.89,6-4.67,6.16-9.59,0-.19,0-.39,0-.59a11.49,11.49,0,0,0-23,0,12.36,12.36,0,0,0,2,7c.77,1.16.9,1.24,1.37,1.94l.43.6.28.36A14.19,14.19,0,0,0,46,76.62c.22.22,1.27,1.1,1.52,1.28a6.39,6.39,0,0,0,2,1,27.23,27.23,0,0,0,10.32,2h0c1,0,1.93-.07,2.92-.17a28.68,28.68,0,0,0,16.69-7.21A31.15,31.15,0,0,1,21.87,57.05c0-5.33,2.08-11.18,5.63-16.37-.09,1.12-.13,2.26-.14,3.41-.05,5.42,1.16,9.68,3.14,12.49l.3.4a40,40,0,0,1-.09-10.64,19.78,19.78,0,0,1,1.5-5.57C37.28,29.9,43.55,28.79,47.14,26a15.53,15.53,0,0,0,5.68-14.59s5.22,3.4,7,7c2.42,4.82,1.61,6.91,1.44,9.57h-.08a9.57,9.57,0,0,0-9.42,8.17,9.9,9.9,0,0,0-.11,1.45,9.81,9.81,0,0,0,19.61,0,11,11,0,0,0-1.23-5.41C79.18,38.08,84.89,47.77,80.75,59.77Z"/><path class="cls-1" d="M52,0a52,52,0,1,0,52,52A52,52,0,0,0,52,0ZM80.75,59.77A26,26,0,0,1,69.61,73.59L69,74a25.86,25.86,0,0,1-10.89,3.31H58a24.2,24.2,0,0,1-4.5-.41,6,6,0,0,0,.61-.08l.44-.08a11.22,11.22,0,0,0,3-1.08c4.35-1.89,6-4.67,6.16-9.59,0-.19,0-.39,0-.59a11.49,11.49,0,0,0-23,0,12.36,12.36,0,0,0,2,7c.77,1.16.9,1.24,1.37,1.94l.43.6.28.36A14.19,14.19,0,0,0,46,76.62c.22.22,1.27,1.1,1.52,1.28a6.39,6.39,0,0,0,2,1,27.23,27.23,0,0,0,10.32,2h0c1,0,1.93-.07,2.92-.17a28.68,28.68,0,0,0,16.69-7.21A31.15,31.15,0,0,1,21.87,57.05c0-5.33,2.08-11.18,5.63-16.37-.09,1.12-.13,2.26-.14,3.41-.05,5.42,1.16,9.68,3.14,12.49l.3.4a40,40,0,0,1-.09-10.64,19.78,19.78,0,0,1,1.5-5.57C37.28,29.9,43.55,28.79,47.14,26a15.53,15.53,0,0,0,5.68-14.59s5.22,3.4,7,7c2.42,4.82,1.61,6.91,1.44,9.57h-.08a9.57,9.57,0,0,0-9.42,8.17,9.9,9.9,0,0,0-.11,1.45,9.81,9.81,0,0,0,19.61,0,11,11,0,0,0-1.23-5.41C79.18,38.08,84.89,47.77,80.75,59.77Z"/></g><g id="Fire-2" data-name="Fire"><path class="cls-2" d="M52,0a52,52,0,1,0,52,52A52,52,0,0,0,52,0ZM80.75,59.77A26,26,0,0,1,69.61,73.59L69,74a25.86,25.86,0,0,1-10.89,3.31H58a24.2,24.2,0,0,1-4.5-.41,6,6,0,0,0,.61-.08l.44-.08a11.22,11.22,0,0,0,3-1.08c4.35-1.89,6-4.67,6.16-9.59,0-.19,0-.39,0-.59a11.49,11.49,0,0,0-23,0,12.36,12.36,0,0,0,2,7c.77,1.16.9,1.24,1.37,1.94l.43.6.28.36A14.19,14.19,0,0,0,46,76.62c.22.22,1.27,1.1,1.52,1.28a6.39,6.39,0,0,0,2,1,27.23,27.23,0,0,0,10.32,2h0c1,0,1.93-.07,2.92-.17a28.68,28.68,0,0,0,16.69-7.21A31.15,31.15,0,0,1,21.87,57.05c0-5.33,2.08-11.18,5.63-16.37-.09,1.12-.13,2.26-.14,3.41-.05,5.42,1.16,9.68,3.14,12.49l.3.4a40,40,0,0,1-.09-10.64,19.78,19.78,0,0,1,1.5-5.57C37.28,29.9,43.55,28.79,47.14,26a15.53,15.53,0,0,0,5.68-14.59s5.22,3.4,7,7c2.42,4.82,1.61,6.91,1.44,9.57h-.08a9.57,9.57,0,0,0-9.42,8.17,9.9,9.9,0,0,0-.11,1.45,9.81,9.81,0,0,0,19.61,0,11,11,0,0,0-1.23-5.41C79.18,38.08,84.89,47.77,80.75,59.77Z"/></g></g></g></svg>