<svg xmlns="http://www.w3.org/2000/svg" viewBox="0 0 120 120"><defs><style>.cls-1{fill:#9e8ec3;}</style></defs><title>Flying (2)</title><g id="Layer_2" data-name="Layer 2"><g id="Layer_2-2" data-name="Layer 2"><path class="cls-1" d="M90.66,34.55l5.64-4.39v3.07A24.52,24.52,0,0,1,77,56.9a25.42,25.42,0,0,1-5.83.67H61.28a.28.28,0,0,0-.28.28v1.67a.28.28,0,0,0,.28.28l16.21,0h.07A25.92,25.92,0,0,0,86,58.29a15.81,15.81,0,0,0,5.39-3.51l2.85-2.89-.32,1.67A19,19,0,0,1,88.22,64a23.41,23.41,0,0,1-10.33,5.26,12.41,12.41,0,0,1-3.22.29H64.41a.18.18,0,0,0-.18.18v1.41a.24.24,0,0,0,.24.24h14A21.94,21.94,0,0,0,83.59,71a21.49,21.49,0,0,0,4.66-1.72s-1.45,6.54-9.91,9.48a10.27,10.27,0,0,1-3.3.53H67.66a.6.6,0,0,0-.6.61v1.65a.6.6,0,0,0,.6.61h4.51a23.15,23.15,0,0,1-18.81,9c-17.33,0-26.51-12.38-26.51-27A24.36,24.36,0,0,1,31.7,50.25c4.75-6,12.51-10.26,17.91-10.84l12.85,0,13.73,0a22.94,22.94,0,0,0,5-.41A22.64,22.64,0,0,0,90.66,34.55Z"/><path class="cls-1" d="M74.5,10.07a0,0,0,0,0,0,0L74.24,10l-.33-.09a4.42,4.42,0,0,1,.48.15.35.35,0,0,0,.11,0h0Zm1.36.42-.58-.19,0,0h-.12s0,0,0,0l.29.1.14,0,.48.15Zm-.75-.23h0Zm-.61-.19a0,0,0,0,0,0,0L74.24,10l-.33-.09a4.42,4.42,0,0,1,.48.15.35.35,0,0,0,.11,0h0ZM10.88,77c0-.12-.08-.22-.12-.33h0a.76.76,0,0,0,.06.2l0,.12s0,0,0,.05v0s0,0,0,0a.36.36,0,0,0,0,.09Zm64-66.83h0a.17.17,0,0,1,.1,0Zm1,.32-.58-.19-.09,0h-.07s0,0,0,0l.29.1.14,0,.48.15ZM75,10.22l.11,0h0A.17.17,0,0,0,75,10.22Zm-.5-.15a0,0,0,0,0,0,0l-.54-.16a4.42,4.42,0,0,1,.48.15.35.35,0,0,0,.11,0h0ZM10.88,77c0-.12-.08-.22-.12-.33h0a.76.76,0,0,0,.06.2l0,.12s0,0,0,.05v0s0,0,0,0a.36.36,0,0,0,0,.09Zm64-66.83h0a.17.17,0,0,1,.1,0Zm.24.08a.17.17,0,0,0-.1,0l.11,0Zm.76.24-.58-.19-.09,0h0l.29.1.14,0,.48.15Zm-1.28-.39h0Zm-.13,0-.54-.16a4.42,4.42,0,0,1,.48.15.35.35,0,0,0,.11,0h0A0,0,0,0,0,74.45,10.06ZM10.88,77c0-.12-.08-.22-.12-.33h0a.76.76,0,0,0,.06.2l0,.12s0,0,0,.05v0s0,0,0,0a.36.36,0,0,0,0,.09ZM77.11,10.91l-.38-.13a.17.17,0,0,0-.1,0s0,0,.05,0l.28.1.16.05Zm-2.25-.74h0a.17.17,0,0,1,.1,0Zm.24.08a.17.17,0,0,0-.1,0l.11,0Zm.76.24-.58-.19-.09,0h0l.29.1.14,0,.48.15Zm-1.28-.39h0Zm-.13,0-.54-.16a4.42,4.42,0,0,1,.48.15.35.35,0,0,0,.11,0h0A0,0,0,0,0,74.45,10.06ZM11,77.43a1.17,1.17,0,0,1-.09-.24L10.88,77c0-.12-.08-.22-.12-.33a1.52,1.52,0,0,0,.06.2,1.09,1.09,0,0,1,0,.17v0s0,0,0,0,.09.25.14.37S11,77.44,11,77.43ZM108.78,42s0,0,0,0l0,.1c.07.17.13.34.19.51Zm0-.06,0,0h0ZM77.27,11l.26.09L77.32,11Zm-.16-.06-.38-.13a0,0,0,0,0,0,0l.28.1.16.05.09,0,.06,0h0Zm-.65-.22a.17.17,0,0,0-.1,0l.1,0,.17.05h0Zm-.17,0,.06,0h-.06Zm-1-.34-.11,0h0l.29.1.14,0,.48.15.1,0-.29-.1ZM75,10.22l.11,0h0A.17.17,0,0,0,75,10.22Zm-.42-.12h0s0,0,0,0Zm-.67-.2a4.42,4.42,0,0,1,.48.15.35.35,0,0,0,.11,0h0a0,0,0,0,0,0,0ZM41.84,108.71c.4.16.8.3,1.2.44l-1.11-.41ZM11.28,78.13q.22.62.48,1.23c-.16-.4-.31-.8-.46-1.2Zm-.34-.94L10.88,77c0-.12-.08-.22-.12-.33a1.52,1.52,0,0,0,.06.2l.06.19s0,0,0,0,.09.25.14.37,0,0,0,0A1.17,1.17,0,0,1,10.94,77.19ZM60,0a60,60,0,1,0,60,60A60,60,0,0,0,60,0Zm0,112c-1.06,0-2.12,0-3.17-.1l-1-.07q-.63,0-1.26-.12A47.26,47.26,0,0,1,49.6,111l-1.22-.26-1.78-.44c-.56-.15-1.11-.3-1.65-.47H44.9l-.33-.1-.29-.1h-.05s0,0,0,0h0c-.71-.23-1.4-.48-2.1-.74l-.14-.05-.09,0-.68-.26c-.29-.1-.58-.22-.85-.34l-.37-.16-.33-.14c-.5-.21-1-.43-1.48-.66s-.9-.42-1.34-.65-.87-.44-1.29-.67-.72-.39-1.07-.6-.62-.35-.93-.54-.66-.39-1-.6l-.68-.43c-.74-.47-1.46-1-2.17-1.49l-.45-.33c-.82-.59-1.61-1.22-2.39-1.87a3.27,3.27,0,0,1-.35-.3c-.25-.21-.51-.42-.76-.65s-.47-.41-.7-.63c-.51-.46-1-.94-1.51-1.43s-.79-.79-1.17-1.19l-1.13-1.23c-.37-.42-.74-.84-1.09-1.27s-.56-.67-.83-1q-1.44-1.8-2.71-3.73l-.27-.42c-.23-.34-.45-.69-.66-1-.35-.58-.69-1.16-1-1.75-.73-1.29-1.4-2.62-2-4-.13-.26-.25-.53-.36-.8s-.34-.78-.49-1.18-.31-.8-.46-1.2h0l-.15-.41s0,0,0,0,0,0,0,0,0-.15-.08-.22,0,0,0,0a1.17,1.17,0,0,1-.09-.24L10.88,77c0-.12-.08-.22-.12-.33h0c0-.11-.08-.22-.11-.33s-.14-.41-.2-.61c0,0,0,0,0,0-.17-.54-.34-1.09-.49-1.64s-.31-1.14-.45-1.72-.29-1.23-.42-1.85h0c-.16-.81-.31-1.63-.44-2.45q-.13-.88-.24-1.77c-.1-.74-.17-1.49-.23-2.25,0-.56-.07-1.13-.09-1.69Q8,61.16,8,60A52,52,0,0,1,60,8c.5,0,1,0,1.49,0s1,0,1.48.06l1.23.08,1.29.12c.42,0,.84.09,1.25.15.74.09,1.48.2,2.21.33l.74.14A2,2,0,0,1,70,9l.45.09.65.14,1,.24c.57.14,1.13.28,1.69.44l0,0a4.42,4.42,0,0,1,.48.15.35.35,0,0,0,.11,0h0s0,0,0,0h.09a.66.66,0,0,1,.2.06.17.17,0,0,1,.1,0l.07,0,.11,0h0s0,0,0,0l.29.1.14,0,.48.15.1,0h0l.08,0h.05l.06,0h0l.09,0,.12,0,.09,0h0l.28.1.16.05.09,0,.06,0,.26.09c.57.2,1.13.41,1.68.64s.9.36,1.35.56l.27.12c.48.2.94.42,1.41.65s1.06.51,1.58.79h0c.4.21.8.41,1.19.64a.37.37,0,0,1,.12.07h0l.55.31q.61.35,1.23.72c.48.29,1,.59,1.43.91s1.07.71,1.59,1.08.87.62,1.28.95.82.61,1.21.94l.36.29c.33.27.67.54,1,.83l.26.23c.41.35.81.71,1.21,1.09s.72.66,1.06,1,.81.79,1.19,1.2l.59.63c.26.27.51.55.75.83l.24.27c.16.17.31.34.45.52s.43.5.63.75.56.68.82,1l.51.67c.49.63,1,1.28,1.4,1.94.2.29.4.58.59.88a49.44,49.44,0,0,1,3,5.24l.39.78c.16.33.31.66.46,1s.21.46.31.7c.36.82.7,1.65,1,2.49l0,.09h0c.28.74.55,1.48.79,2.23q.24.72.45,1.47l.24.87c.08.29.16.58.23.87.31,1.25.58,2.5.8,3.78.07.35.12.71.17,1.06s.11.71.15,1.07.11.83.15,1.25.09.86.12,1.29.06.82.08,1.23.06,1,.06,1.48,0,1,0,1.49A52,52,0,0,1,60,112ZM11,77.43a1.17,1.17,0,0,1-.09-.24L10.88,77c0-.12-.08-.22-.12-.33a1.52,1.52,0,0,0,.06.2,1.09,1.09,0,0,1,0,.17v0s0,0,0,0,.09.25.14.37S11,77.44,11,77.43ZM74.45,10.06l-.54-.16a4.42,4.42,0,0,1,.48.15.35.35,0,0,0,.11,0h0A0,0,0,0,0,74.45,10.06Zm.13,0h0Zm.52.15a.17.17,0,0,0-.1,0l.11,0Zm.76.24-.58-.19-.09,0h0l.29.1.14,0,.48.15Zm.48.16h0l.06,0Zm.12,0h0l.15,0Zm.86.29h0l.26.09Zm-.21-.07-.38-.13a0,0,0,0,0,0,0l.28.1.16.05.09,0,.06,0h0ZM108.78,42a.19.19,0,0,0,0,.08c.07.17.13.34.19.51ZM10.88,77c0-.12-.08-.22-.12-.33h0a.76.76,0,0,0,.06.2l0,.12s0,0,0,.05v0s0,0,0,0a.36.36,0,0,0,0,.09ZM74.45,10.06l-.54-.16a4.42,4.42,0,0,1,.48.15.35.35,0,0,0,.11,0h0A0,0,0,0,0,74.45,10.06Zm.13,0h0Zm.28.07h0a.17.17,0,0,1,.1,0Zm.24.08a.17.17,0,0,0-.1,0l.11,0Zm.76.24-.58-.19-.09,0h0l.29.1.14,0,.48.15Zm.41.14h.07A.06.06,0,0,0,76.27,10.63Zm.07,0h0Zm.77.26-.38-.13a.17.17,0,0,0-.1,0s0,0,.05,0l.28.1.16.05ZM10.88,77c0-.12-.08-.22-.12-.33h0a.76.76,0,0,0,.06.2l0,.12s0,0,0,.05v0s0,0,0,0a.36.36,0,0,0,0,.09ZM74.45,10.06l-.54-.16a4.42,4.42,0,0,1,.48.15.35.35,0,0,0,.11,0h0A0,0,0,0,0,74.45,10.06Zm.41.11h0a.17.17,0,0,1,.1,0Zm1,.32-.58-.19-.09,0h-.07s0,0,0,0l.29.1.14,0,.48.15ZM75,10.22l.11,0h0A.17.17,0,0,0,75,10.22ZM10.88,77c0-.12-.08-.22-.12-.33h0a.76.76,0,0,0,.06.2l0,.12s0,0,0,.05v0s0,0,0,0a.36.36,0,0,0,0,.09ZM74.5,10.07a0,0,0,0,0,0,0L74.24,10l-.33-.09a4.42,4.42,0,0,1,.48.15.35.35,0,0,0,.11,0h0Zm1.36.42-.58-.19,0,0h-.12s0,0,0,0l.29.1.14,0,.48.15Zm-.75-.23h0Zm-.61-.19a0,0,0,0,0,0,0L74.24,10l-.33-.09a4.42,4.42,0,0,1,.48.15.35.35,0,0,0,.11,0h0Z"/></g></g></svg>