<svg xmlns="http://www.w3.org/2000/svg" viewBox="0 0 104 104"><defs><style>.cls-1{fill:#eb2227;}.cls-2{fill:#7dc24c;}</style></defs><title>Grass (1)</title><g id="Layer_2" data-name="Layer 2"><g id="Layer_1-2" data-name="Layer 1"><g id="Grass"><path class="cls-1" d="M52,0a52,52,0,1,0,52,52A52,52,0,0,0,52,0ZM72.38,77.83A31.28,31.28,0,0,1,33.11,85h0l5.93-8.17,26.09-4a1.26,1.26,0,0,0-.23-2.51L43.27,71l9.47-13L69.51,54.6a1.26,1.26,0,0,0-.25-2.5l-12.3,0L70.09,34.07a1.26,1.26,0,0,0-1.92-1.62L52.71,48.12,50,35.31a1.26,1.26,0,0,0-2.49.28l.3,17.53L36.45,64.59,32.94,42.54a1.26,1.26,0,0,0-2.51.22l.47,27.46-6.82,6.91a1.19,1.19,0,0,0-.15.18c-9.21-11.13-9.48-27.07.12-39.11,15.78-19.82,49.73-16.58,54.28-17a.45.45,0,0,1,.48.4C79.27,26.14,87.57,60.12,72.38,77.83Z"/><path class="cls-1" d="M52,0a52,52,0,1,0,52,52A52,52,0,0,0,52,0ZM72.38,77.83A31.28,31.28,0,0,1,33.11,85h0l5.93-8.17,26.09-4a1.26,1.26,0,0,0-.23-2.51L43.27,71l9.47-13L69.51,54.6a1.26,1.26,0,0,0-.25-2.5l-12.3,0L70.09,34.07a1.26,1.26,0,0,0-1.92-1.62L52.71,48.12,50,35.31a1.26,1.26,0,0,0-2.49.28l.3,17.53L36.45,64.59,32.94,42.54a1.26,1.26,0,0,0-2.51.22l.47,27.46-6.82,6.91a1.19,1.19,0,0,0-.15.18c-9.21-11.13-9.48-27.07.12-39.11,15.78-19.82,49.73-16.58,54.28-17a.45.45,0,0,1,.48.4C79.27,26.14,87.57,60.12,72.38,77.83Z"/></g><g id="Grass-2" data-name="Grass"><path class="cls-2" d="M52,0a52,52,0,1,0,52,52A52,52,0,0,0,52,0ZM72.38,77.83A31.28,31.28,0,0,1,33.11,85h0l5.93-8.17,26.09-4a1.26,1.26,0,0,0-.23-2.51L43.27,71l9.47-13L69.51,54.6a1.26,1.26,0,0,0-.25-2.5l-12.3,0L70.09,34.07a1.26,1.26,0,0,0-1.92-1.62L52.71,48.12,50,35.31a1.26,1.26,0,0,0-2.49.28l.3,17.53L36.45,64.59,32.94,42.54a1.26,1.26,0,0,0-2.51.22l.47,27.46-6.82,6.91a1.19,1.19,0,0,0-.15.18c-9.21-11.13-9.48-27.07.12-39.11,15.78-19.82,49.73-16.58,54.28-17a.45.45,0,0,1,.48.4C79.27,26.14,87.57,60.12,72.38,77.83Z"/></g></g></g></svg>