<svg xmlns="http://www.w3.org/2000/svg" viewBox="0 0 104 104"><defs><style>.cls-1{fill:#eb2227;}.cls-2{fill:#e2bf63;}</style></defs><title>Ground (1)</title><g id="Layer_2" data-name="Layer 2"><g id="Layer_1-2" data-name="Layer 1"><g id="Ground"><path class="cls-1" d="M52,0a52,52,0,1,0,52,52A52,52,0,0,0,52,0ZM10.76,72.39,24.75,35h14l-14,37.37Zm19.57,0,18-48.13H72.59l18,48.13Z"/><path class="cls-1" d="M52,0a52,52,0,1,0,52,52A52,52,0,0,0,52,0ZM10.76,72.39,24.75,35h14l-14,37.37Zm19.57,0,18-48.13H72.59l18,48.13Z"/></g><g id="Ground-2" data-name="Ground"><path class="cls-2" d="M52,0a52,52,0,1,0,52,52A52,52,0,0,0,52,0ZM10.76,72.39,24.75,35h14l-14,37.37Zm19.57,0,18-48.13H72.59l18,48.13Z"/></g></g></g></svg>