<svg xmlns="http://www.w3.org/2000/svg" viewBox="0 0 104 104"><defs><style>.cls-1{fill:#eb2227;}.cls-2{fill:#a04299;}</style></defs><title>Poison (1)</title><g id="Layer_2" data-name="Layer 2"><g id="Layer_1-2" data-name="Layer 1"><g id="Poison"><path class="cls-1" d="M52.15,30.13c-12.17,0-22,7.83-22,17.48,0,8.61,7.84,15.76,18.16,17.21a27.37,27.37,0,0,0,3.88.27,26.64,26.64,0,0,0,3.93-.28c10.31-1.47,18.12-8.6,18.12-17.2C74.2,38,64.33,30.13,52.15,30.13Zm0,0c-12.17,0-22,7.83-22,17.48,0,8.61,7.84,15.76,18.16,17.21a27.37,27.37,0,0,0,3.88.27,26.64,26.64,0,0,0,3.93-.28c10.31-1.47,18.12-8.6,18.12-17.2C74.2,38,64.33,30.13,52.15,30.13Zm0,0c-12.17,0-22,7.83-22,17.48,0,8.61,7.84,15.76,18.16,17.21a27.37,27.37,0,0,0,3.88.27,26.64,26.64,0,0,0,3.93-.28c10.31-1.47,18.12-8.6,18.12-17.2C74.2,38,64.33,30.13,52.15,30.13Zm0,0c-12.17,0-22,7.83-22,17.48,0,8.61,7.84,15.76,18.16,17.21a27.37,27.37,0,0,0,3.88.27,26.64,26.64,0,0,0,3.93-.28c10.31-1.47,18.12-8.6,18.12-17.2C74.2,38,64.33,30.13,52.15,30.13Zm0,0c-12.17,0-22,7.83-22,17.48,0,8.61,7.84,15.76,18.16,17.21a27.37,27.37,0,0,0,3.88.27,26.64,26.64,0,0,0,3.93-.28c10.31-1.47,18.12-8.6,18.12-17.2C74.2,38,64.33,30.13,52.15,30.13Zm0,0c-12.17,0-22,7.83-22,17.48,0,8.61,7.84,15.76,18.16,17.21a27.37,27.37,0,0,0,3.88.27,26.64,26.64,0,0,0,3.93-.28c10.31-1.47,18.12-8.6,18.12-17.2C74.2,38,64.33,30.13,52.15,30.13Zm0,0c-12.17,0-22,7.83-22,17.48,0,8.61,7.84,15.76,18.16,17.21a27.37,27.37,0,0,0,3.88.27,26.64,26.64,0,0,0,3.93-.28c10.31-1.47,18.12-8.6,18.12-17.2C74.2,38,64.33,30.13,52.15,30.13Zm0,0c-12.17,0-22,7.83-22,17.48,0,8.61,7.84,15.76,18.16,17.21a27.37,27.37,0,0,0,3.88.27,26.64,26.64,0,0,0,3.93-.28c10.31-1.47,18.12-8.6,18.12-17.2C74.2,38,64.33,30.13,52.15,30.13ZM52,0a52,52,0,1,0,52,52A52,52,0,0,0,52,0ZM74.47,68.73a11.75,11.75,0,0,1,1.23,4.53c.37,5.6-3.11,10.39-7.78,10.7-3.48.23-6.63-2.09-8.17-5.59C58.37,81.69,55.5,84,52.18,84S46,81.73,44.63,78.45C43.09,81.91,40,84.19,36.51,84c-4.68-.31-8.16-5.1-7.79-10.7A11.62,11.62,0,0,1,29.84,69c-7-5.2-11.39-12.83-11.39-21.34,0-15.7,15-28.43,33.55-28.43S85.55,31.91,85.55,47.61C85.55,56,81.27,63.53,74.47,68.73ZM52.15,30.13c-12.17,0-22,7.83-22,17.48,0,8.61,7.84,15.76,18.16,17.21a27.37,27.37,0,0,0,3.88.27,26.64,26.64,0,0,0,3.93-.28c10.31-1.47,18.12-8.6,18.12-17.2C74.2,38,64.33,30.13,52.15,30.13Zm0,0c-12.17,0-22,7.83-22,17.48,0,8.61,7.84,15.76,18.16,17.21a27.37,27.37,0,0,0,3.88.27,26.64,26.64,0,0,0,3.93-.28c10.31-1.47,18.12-8.6,18.12-17.2C74.2,38,64.33,30.13,52.15,30.13Zm0,0c-12.17,0-22,7.83-22,17.48,0,8.61,7.84,15.76,18.16,17.21a27.37,27.37,0,0,0,3.88.27,26.64,26.64,0,0,0,3.93-.28c10.31-1.47,18.12-8.6,18.12-17.2C74.2,38,64.33,30.13,52.15,30.13Zm0,0c-12.17,0-22,7.83-22,17.48,0,8.61,7.84,15.76,18.16,17.21a27.37,27.37,0,0,0,3.88.27,26.64,26.64,0,0,0,3.93-.28c10.31-1.47,18.12-8.6,18.12-17.2C74.2,38,64.33,30.13,52.15,30.13Zm0,0c-12.17,0-22,7.83-22,17.48,0,8.61,7.84,15.76,18.16,17.21a27.37,27.37,0,0,0,3.88.27,26.64,26.64,0,0,0,3.93-.28c10.31-1.47,18.12-8.6,18.12-17.2C74.2,38,64.33,30.13,52.15,30.13Zm0,0c-12.17,0-22,7.83-22,17.48,0,8.61,7.84,15.76,18.16,17.21a27.37,27.37,0,0,0,3.88.27,26.64,26.64,0,0,0,3.93-.28c10.31-1.47,18.12-8.6,18.12-17.2C74.2,38,64.33,30.13,52.15,30.13Zm0,0c-12.17,0-22,7.83-22,17.48,0,8.61,7.84,15.76,18.16,17.21a27.37,27.37,0,0,0,3.88.27,26.64,26.64,0,0,0,3.93-.28c10.31-1.47,18.12-8.6,18.12-17.2C74.2,38,64.33,30.13,52.15,30.13Z"/><path class="cls-1" d="M52.15,30.13c-12.17,0-22,7.83-22,17.48,0,8.61,7.84,15.76,18.16,17.21a27.37,27.37,0,0,0,3.88.27,26.64,26.64,0,0,0,3.93-.28c10.31-1.47,18.12-8.6,18.12-17.2C74.2,38,64.33,30.13,52.15,30.13Zm0,0c-12.17,0-22,7.83-22,17.48,0,8.61,7.84,15.76,18.16,17.21a27.37,27.37,0,0,0,3.88.27,26.64,26.64,0,0,0,3.93-.28c10.31-1.47,18.12-8.6,18.12-17.2C74.2,38,64.33,30.13,52.15,30.13Zm0,0c-12.17,0-22,7.83-22,17.48,0,8.61,7.84,15.76,18.16,17.21a27.37,27.37,0,0,0,3.88.27,26.64,26.64,0,0,0,3.93-.28c10.31-1.47,18.12-8.6,18.12-17.2C74.2,38,64.33,30.13,52.15,30.13Zm0,0c-12.17,0-22,7.83-22,17.48,0,8.61,7.84,15.76,18.16,17.21a27.37,27.37,0,0,0,3.88.27,26.64,26.64,0,0,0,3.93-.28c10.31-1.47,18.12-8.6,18.12-17.2C74.2,38,64.33,30.13,52.15,30.13Zm0,0c-12.17,0-22,7.83-22,17.48,0,8.61,7.84,15.76,18.16,17.21a27.37,27.37,0,0,0,3.88.27,26.64,26.64,0,0,0,3.93-.28c10.31-1.47,18.12-8.6,18.12-17.2C74.2,38,64.33,30.13,52.15,30.13Zm0,0c-12.17,0-22,7.83-22,17.48,0,8.61,7.84,15.76,18.16,17.21a27.37,27.37,0,0,0,3.88.27,26.64,26.64,0,0,0,3.93-.28c10.31-1.47,18.12-8.6,18.12-17.2C74.2,38,64.33,30.13,52.15,30.13Zm0,0c-12.17,0-22,7.83-22,17.48,0,8.61,7.84,15.76,18.16,17.21a27.37,27.37,0,0,0,3.88.27,26.64,26.64,0,0,0,3.93-.28c10.31-1.47,18.12-8.6,18.12-17.2C74.2,38,64.33,30.13,52.15,30.13Zm0,0c-12.17,0-22,7.83-22,17.48,0,8.61,7.84,15.76,18.16,17.21a27.37,27.37,0,0,0,3.88.27,26.64,26.64,0,0,0,3.93-.28c10.31-1.47,18.12-8.6,18.12-17.2C74.2,38,64.33,30.13,52.15,30.13ZM52,0a52,52,0,1,0,52,52A52,52,0,0,0,52,0ZM74.47,68.73a11.75,11.75,0,0,1,1.23,4.53c.37,5.6-3.11,10.39-7.78,10.7-3.48.23-6.63-2.09-8.17-5.59C58.37,81.69,55.5,84,52.18,84S46,81.73,44.63,78.45C43.09,81.91,40,84.19,36.51,84c-4.68-.31-8.16-5.1-7.79-10.7A11.62,11.62,0,0,1,29.84,69c-7-5.2-11.39-12.83-11.39-21.34,0-15.7,15-28.43,33.55-28.43S85.55,31.91,85.55,47.61C85.55,56,81.27,63.53,74.47,68.73ZM52.15,30.13c-12.17,0-22,7.83-22,17.48,0,8.61,7.84,15.76,18.16,17.21a27.37,27.37,0,0,0,3.88.27,26.64,26.64,0,0,0,3.93-.28c10.31-1.47,18.12-8.6,18.12-17.2C74.2,38,64.33,30.13,52.15,30.13Zm0,0c-12.17,0-22,7.83-22,17.48,0,8.61,7.84,15.76,18.16,17.21a27.37,27.37,0,0,0,3.88.27,26.64,26.64,0,0,0,3.93-.28c10.31-1.47,18.12-8.6,18.12-17.2C74.2,38,64.33,30.13,52.15,30.13Zm0,0c-12.17,0-22,7.83-22,17.48,0,8.61,7.84,15.76,18.16,17.21a27.37,27.37,0,0,0,3.88.27,26.64,26.64,0,0,0,3.93-.28c10.31-1.47,18.12-8.6,18.12-17.2C74.2,38,64.33,30.13,52.15,30.13Zm0,0c-12.17,0-22,7.83-22,17.48,0,8.61,7.84,15.76,18.16,17.21a27.37,27.37,0,0,0,3.88.27,26.64,26.64,0,0,0,3.93-.28c10.31-1.47,18.12-8.6,18.12-17.2C74.2,38,64.33,30.13,52.15,30.13Zm0,0c-12.17,0-22,7.83-22,17.48,0,8.61,7.84,15.76,18.16,17.21a27.37,27.37,0,0,0,3.88.27,26.64,26.64,0,0,0,3.93-.28c10.31-1.47,18.12-8.6,18.12-17.2C74.2,38,64.33,30.13,52.15,30.13Zm0,0c-12.17,0-22,7.83-22,17.48,0,8.61,7.84,15.76,18.16,17.21a27.37,27.37,0,0,0,3.88.27,26.64,26.64,0,0,0,3.93-.28c10.31-1.47,18.12-8.6,18.12-17.2C74.2,38,64.33,30.13,52.15,30.13Zm0,0c-12.17,0-22,7.83-22,17.48,0,8.61,7.84,15.76,18.16,17.21a27.37,27.37,0,0,0,3.88.27,26.64,26.64,0,0,0,3.93-.28c10.31-1.47,18.12-8.6,18.12-17.2C74.2,38,64.33,30.13,52.15,30.13Z"/></g><g id="Poison-2" data-name="Poison"><path class="cls-2" d="M52.15,30.13c-12.17,0-22,7.83-22,17.48,0,8.61,7.84,15.76,18.16,17.21a27.37,27.37,0,0,0,3.88.27,26.64,26.64,0,0,0,3.93-.28c10.31-1.47,18.12-8.6,18.12-17.2C74.2,38,64.33,30.13,52.15,30.13Zm0,0c-12.17,0-22,7.83-22,17.48,0,8.61,7.84,15.76,18.16,17.21a27.37,27.37,0,0,0,3.88.27,26.64,26.64,0,0,0,3.93-.28c10.31-1.47,18.12-8.6,18.12-17.2C74.2,38,64.33,30.13,52.15,30.13Zm0,0c-12.17,0-22,7.83-22,17.48,0,8.61,7.84,15.76,18.16,17.21a27.37,27.37,0,0,0,3.88.27,26.64,26.64,0,0,0,3.93-.28c10.31-1.47,18.12-8.6,18.12-17.2C74.2,38,64.33,30.13,52.15,30.13Zm0,0c-12.17,0-22,7.83-22,17.48,0,8.61,7.84,15.76,18.16,17.21a27.37,27.37,0,0,0,3.88.27,26.64,26.64,0,0,0,3.93-.28c10.31-1.47,18.12-8.6,18.12-17.2C74.2,38,64.33,30.13,52.15,30.13Zm0,0c-12.17,0-22,7.83-22,17.48,0,8.61,7.84,15.76,18.16,17.21a27.37,27.37,0,0,0,3.88.27,26.64,26.64,0,0,0,3.93-.28c10.31-1.47,18.12-8.6,18.12-17.2C74.2,38,64.33,30.13,52.15,30.13Zm0,0c-12.17,0-22,7.83-22,17.48,0,8.61,7.84,15.76,18.16,17.21a27.37,27.37,0,0,0,3.88.27,26.64,26.64,0,0,0,3.93-.28c10.31-1.47,18.12-8.6,18.12-17.2C74.2,38,64.33,30.13,52.15,30.13Zm0,0c-12.17,0-22,7.83-22,17.48,0,8.61,7.84,15.76,18.16,17.21a27.37,27.37,0,0,0,3.88.27,26.64,26.64,0,0,0,3.93-.28c10.31-1.47,18.12-8.6,18.12-17.2C74.2,38,64.33,30.13,52.15,30.13Zm0,0c-12.17,0-22,7.83-22,17.48,0,8.61,7.84,15.76,18.16,17.21a27.37,27.37,0,0,0,3.88.27,26.64,26.64,0,0,0,3.93-.28c10.31-1.47,18.12-8.6,18.12-17.2C74.2,38,64.33,30.13,52.15,30.13ZM52,0a52,52,0,1,0,52,52A52,52,0,0,0,52,0ZM74.47,68.73a11.75,11.75,0,0,1,1.23,4.53c.37,5.6-3.11,10.39-7.78,10.7-3.48.23-6.63-2.09-8.17-5.59C58.37,81.69,55.5,84,52.18,84S46,81.73,44.63,78.45C43.09,81.91,40,84.19,36.51,84c-4.68-.31-8.16-5.1-7.79-10.7A11.62,11.62,0,0,1,29.84,69c-7-5.2-11.39-12.83-11.39-21.34,0-15.7,15-28.43,33.55-28.43S85.55,31.91,85.55,47.61C85.55,56,81.27,63.53,74.47,68.73ZM52.15,30.13c-12.17,0-22,7.83-22,17.48,0,8.61,7.84,15.76,18.16,17.21a27.37,27.37,0,0,0,3.88.27,26.64,26.64,0,0,0,3.93-.28c10.31-1.47,18.12-8.6,18.12-17.2C74.2,38,64.33,30.13,52.15,30.13Zm0,0c-12.17,0-22,7.83-22,17.48,0,8.61,7.84,15.76,18.16,17.21a27.37,27.37,0,0,0,3.88.27,26.64,26.64,0,0,0,3.93-.28c10.31-1.47,18.12-8.6,18.12-17.2C74.2,38,64.33,30.13,52.15,30.13Zm0,0c-12.17,0-22,7.83-22,17.48,0,8.61,7.84,15.76,18.16,17.21a27.37,27.37,0,0,0,3.88.27,26.64,26.64,0,0,0,3.93-.28c10.31-1.47,18.12-8.6,18.12-17.2C74.2,38,64.33,30.13,52.15,30.13Zm0,0c-12.17,0-22,7.83-22,17.48,0,8.61,7.84,15.76,18.16,17.21a27.37,27.37,0,0,0,3.88.27,26.64,26.64,0,0,0,3.93-.28c10.31-1.47,18.12-8.6,18.12-17.2C74.2,38,64.33,30.13,52.15,30.13Zm0,0c-12.17,0-22,7.83-22,17.48,0,8.61,7.84,15.76,18.16,17.21a27.37,27.37,0,0,0,3.88.27,26.64,26.64,0,0,0,3.93-.28c10.31-1.47,18.12-8.6,18.12-17.2C74.2,38,64.33,30.13,52.15,30.13Zm0,0c-12.17,0-22,7.83-22,17.48,0,8.61,7.84,15.76,18.16,17.21a27.37,27.37,0,0,0,3.88.27,26.64,26.64,0,0,0,3.93-.28c10.31-1.47,18.12-8.6,18.12-17.2C74.2,38,64.33,30.13,52.15,30.13Zm0,0c-12.17,0-22,7.83-22,17.48,0,8.61,7.84,15.76,18.16,17.21a27.37,27.37,0,0,0,3.88.27,26.64,26.64,0,0,0,3.93-.28c10.31-1.47,18.12-8.6,18.12-17.2C74.2,38,64.33,30.13,52.15,30.13Z"/></g></g></g></svg>