<svg xmlns="http://www.w3.org/2000/svg" viewBox="0 0 120 120"><defs><style>.cls-1{fill:#a04299;}</style></defs><title>Poison (2)</title><g id="Layer_2" data-name="Layer 2"><g id="Layer_2-2" data-name="Layer 2"><path class="cls-1" d="M93.55,55.61c0-15.7-15-28.43-33.55-28.43S26.45,39.91,26.45,55.61c0,8.51,4.4,16.14,11.39,21.34a11.62,11.62,0,0,0-1.12,4.31c-.37,5.6,3.11,10.39,7.79,10.7,3.45.23,6.58-2,8.12-5.51C54,89.73,56.89,92,60.18,92s6.19-2.29,7.57-5.61c1.54,3.5,4.69,5.82,8.17,5.59,4.67-.31,8.15-5.1,7.78-10.7a11.75,11.75,0,0,0-1.23-4.53C89.27,71.53,93.55,64,93.55,55.61ZM64.08,72.81a26.64,26.64,0,0,1-3.93.28,27.37,27.37,0,0,1-3.88-.27C46,71.37,38.11,64.22,38.11,55.61c0-9.65,9.87-17.48,22-17.48S82.2,46,82.2,55.61C82.2,64.21,74.39,71.34,64.08,72.81Z"/><path class="cls-1" d="M60,0a60,60,0,1,0,60,60A60,60,0,0,0,60,0Zm0,112a52,52,0,1,1,52-52A52,52,0,0,1,60,112Z"/></g></g></svg>