<svg xmlns="http://www.w3.org/2000/svg" viewBox="0 0 126.18 126.18"><defs><style>.cls-1{fill:#414142;}.cls-2{fill:#ef403c;}.cls-3{fill:#fff;}</style></defs><title>Pokeball</title><g id="Layer_2" data-name="Layer 2"><g id="Layer_1-2" data-name="Layer 1"><g id="Pokemon"><circle class="cls-1" cx="63.09" cy="63.09" r="63.09"/><g id="Pokeball"><path class="cls-1" d="M63.09,6A57.13,57.13,0,0,0,6.18,58.05h34.3a23.28,23.28,0,0,1,45.48,0h34A57.13,57.13,0,0,0,63.09,6Z"/><path class="cls-1" d="M63.09,6A57.13,57.13,0,0,0,6.18,58.05h34.3a23.28,23.28,0,0,1,45.48,0h34A57.13,57.13,0,0,0,63.09,6Z"/></g><path id="Pokeball-2" data-name="Pokeball" class="cls-1" d="M75.23,58a13,13,0,1,0-.36,10.76A13,13,0,0,0,75.23,58ZM85.77,68.72a23.28,23.28,0,0,1-45.12,0H6.23a57.14,57.14,0,0,0,113.71,0Z"/><circle class="cls-1" cx="63.09" cy="63.09" r="63.09"/><g id="Pokeball-3" data-name="Pokeball"><path class="cls-1" d="M63.09,6A57.13,57.13,0,0,0,6.18,58.05h34.3a23.28,23.28,0,0,1,45.48,0h34A57.13,57.13,0,0,0,63.09,6Z"/><path class="cls-1" d="M63.09,6A57.13,57.13,0,0,0,6.18,58.05h34.3a23.28,23.28,0,0,1,45.48,0h34A57.13,57.13,0,0,0,63.09,6Z"/></g><path id="Pokeball-4" data-name="Pokeball" class="cls-1" d="M75.23,58a13,13,0,1,0-.36,10.76A13,13,0,0,0,75.23,58ZM85.77,68.72a23.28,23.28,0,0,1-45.12,0H6.23a57.14,57.14,0,0,0,113.71,0Z"/><circle class="cls-1" cx="63.09" cy="63.09" r="63.09"/><g id="Pokeball-5" data-name="Pokeball"><path class="cls-1" d="M63.09,6A57.13,57.13,0,0,0,6.18,58.05h34.3a23.28,23.28,0,0,1,45.48,0h34A57.13,57.13,0,0,0,63.09,6Z"/><path class="cls-1" d="M63.09,6A57.13,57.13,0,0,0,6.18,58.05h34.3a23.28,23.28,0,0,1,45.48,0h34A57.13,57.13,0,0,0,63.09,6Z"/></g><path id="Pokeball-6" data-name="Pokeball" class="cls-1" d="M75.23,58a13,13,0,1,0-.36,10.76A13,13,0,0,0,75.23,58ZM85.77,68.72a23.28,23.28,0,0,1-45.12,0H6.23a57.14,57.14,0,0,0,113.71,0Z"/></g><g id="Pokemon-2" data-name="Pokemon"><circle class="cls-1" cx="63.09" cy="63.09" r="63.09"/><g id="Pokeball-7" data-name="Pokeball"><path class="cls-1" d="M63.09,6A57.13,57.13,0,0,0,6.18,58.05h34.3a23.28,23.28,0,0,1,45.48,0h34A57.13,57.13,0,0,0,63.09,6Z"/><path class="cls-1" d="M63.09,6A57.13,57.13,0,0,0,6.18,58.05h34.3a23.28,23.28,0,0,1,45.48,0h34A57.13,57.13,0,0,0,63.09,6Z"/></g><path id="Pokeball-8" data-name="Pokeball" class="cls-1" d="M75.23,58a13,13,0,1,0-.36,10.76A13,13,0,0,0,75.23,58ZM85.77,68.72a23.28,23.28,0,0,1-45.12,0H6.23a57.14,57.14,0,0,0,113.71,0Z"/><circle class="cls-1" cx="63.09" cy="63.09" r="63.09"/><g id="Pokeball-9" data-name="Pokeball"><path class="cls-2" d="M63.09,6A57.13,57.13,0,0,0,6.18,58.05h34.3a23.28,23.28,0,0,1,45.48,0h34A57.13,57.13,0,0,0,63.09,6Z"/></g><path id="Pokeball-10" data-name="Pokeball" class="cls-3" d="M75.23,58a13,13,0,1,0-.36,10.76A13,13,0,0,0,75.23,58ZM85.77,68.72a23.28,23.28,0,0,1-45.12,0H6.23a57.14,57.14,0,0,0,113.71,0Z"/></g></g></g></svg>