<svg xmlns="http://www.w3.org/2000/svg" viewBox="0 0 120 120"><defs><style>.cls-1{fill:#f05587;}</style></defs><title>Psychic (2)</title><g id="Layer_2" data-name="Layer 2"><g id="Layer_2-2" data-name="Layer 2"><path class="cls-1" d="M86.54,70.62c-5.72,11.29-21.69,12-30.33,8.21-9.68-4.2-11.09-16.73-7.72-23.48,3.71-7.43,12.94-9,18.39-6.45,4.36,2.06,8.67,7.5,5.28,14.28-2,4.11-7,3.9-8.7,3.7-1.91-.23-5.22-2.17-4.62-4.68a.23.23,0,0,1,.42-.06c1.27,2,6.37,2.87,8.3.26,1.74-2.36,1.22-6.6-1.76-8.12-3.72-1.91-9.29-.59-11.35,3.42-2.5,4.88-.39,12.62,5.14,14.85,4.4,1.77,13.46,2.25,17.46-6s.51-18.29-6.72-22.1C62.25,40.15,46.7,40.79,41,52.8c-4.58,9.7-1.58,20.45,3.15,25.94,8.89,10.33,26.93,10.34,32.58,7.82C72.26,93,49.43,95,36.94,81.18,30.39,73.94,25,59.94,34.59,43.42c9.2-15.85,29.06-15.24,40.9-9.47C86.07,39.11,94.37,55.16,86.54,70.62Z"/><path class="cls-1" d="M60,0a60,60,0,1,0,60,60A60,60,0,0,0,60,0Zm0,112a52,52,0,1,1,52-52A52,52,0,0,1,60,112Z"/></g></g></svg>