<svg width="1728" height="1044" viewBox="0 0 1728 1044" fill="none" xmlns="http://www.w3.org/2000/svg">
<g clip-path="url(#clip0_88_60)">
<path d="M0 655.98L57.6 688.518C115.2 720.882 230.4 785.958 345.6 818.322C460.8 850.86 576 850.86 691.2 840.942C806.4 831.198 921.6 811.362 1036.8 800.052C1152 788.742 1267.2 785.958 1382.4 749.592C1497.6 713.4 1612.8 643.8 1670.4 609L1728 574.2V1045.74H1670.4C1612.8 1045.74 1497.6 1045.74 1382.4 1045.74C1267.2 1045.74 1152 1045.74 1036.8 1045.74C921.6 1045.74 806.4 1045.74 691.2 1045.74C576 1045.74 460.8 1045.74 345.6 1045.74C230.4 1045.74 115.2 1045.74 57.6 1045.74H0V655.98Z" fill="white" fill-opacity="0.7"/>
<path d="M0 624.66L57.6 641.712C115.2 658.938 230.4 693.042 345.6 662.592C460.8 632.142 576 537.138 691.2 555.408C806.4 573.678 921.6 705.222 1036.8 706.44C1152 707.658 1267.2 578.202 1382.4 582.03C1497.6 585.858 1612.8 722.622 1670.4 791.178L1728 859.56V1045.74H1670.4C1612.8 1045.74 1497.6 1045.74 1382.4 1045.74C1267.2 1045.74 1152 1045.74 1036.8 1045.74C921.6 1045.74 806.4 1045.74 691.2 1045.74C576 1045.74 460.8 1045.74 345.6 1045.74C230.4 1045.74 115.2 1045.74 57.6 1045.74H0V624.66Z" fill="white" fill-opacity="0.7"/>
<path d="M0 628.14L57.6 658.068C115.2 687.822 230.4 747.678 345.6 791.352C460.8 835.2 576 863.04 691.2 870.87C806.4 878.7 921.6 866.52 1036.8 830.85C1152 795.18 1267.2 736.02 1382.4 691.998C1497.6 647.802 1612.8 618.918 1670.4 604.302L1728 589.86V1045.74H1670.4C1612.8 1045.74 1497.6 1045.74 1382.4 1045.74C1267.2 1045.74 1152 1045.74 1036.8 1045.74C921.6 1045.74 806.4 1045.74 691.2 1045.74C576 1045.74 460.8 1045.74 345.6 1045.74C230.4 1045.74 115.2 1045.74 57.6 1045.74H0V628.14Z" fill="white" fill-opacity="0.7"/>
<path d="M0 655.98L57.6 645.018C115.2 633.882 230.4 611.958 345.6 630.75C460.8 649.542 576 709.398 691.2 751.68C806.4 793.962 921.6 819.018 1036.8 824.238C1152 829.458 1267.2 814.842 1382.4 807.708C1497.6 800.4 1612.8 800.4 1670.4 800.4H1728V1045.74H1670.4C1612.8 1045.74 1497.6 1045.74 1382.4 1045.74C1267.2 1045.74 1152 1045.74 1036.8 1045.74C921.6 1045.74 806.4 1045.74 691.2 1045.74C576 1045.74 460.8 1045.74 345.6 1045.74C230.4 1045.74 115.2 1045.74 57.6 1045.74H0V655.98Z" fill="white" fill-opacity="0.7"/>
<path d="M0 920.46L57.6 891.75C115.2 863.04 230.4 805.62 345.6 770.82C460.8 736.02 576 723.84 691.2 711.66C806.4 699.48 921.6 687.3 1036.8 711.312C1152 735.498 1267.2 795.702 1382.4 796.05C1497.6 796.398 1612.8 736.542 1670.4 706.788L1728 676.86V1045.74H1670.4C1612.8 1045.74 1497.6 1045.74 1382.4 1045.74C1267.2 1045.74 1152 1045.74 1036.8 1045.74C921.6 1045.74 806.4 1045.74 691.2 1045.74C576 1045.74 460.8 1045.74 345.6 1045.74C230.4 1045.74 115.2 1045.74 57.6 1045.74H0V920.46Z" fill="white" fill-opacity="0.7"/>
<path d="M0 772.56L57.6 801.618C115.2 830.502 230.4 888.618 345.6 905.67C460.8 922.722 576 899.058 691.2 873.48C806.4 847.902 921.6 820.758 1036.8 833.112C1152 845.64 1267.2 897.84 1382.4 922.548C1497.6 947.082 1612.8 944.298 1670.4 942.732L1728 941.34V1045.74H1670.4C1612.8 1045.74 1497.6 1045.74 1382.4 1045.74C1267.2 1045.74 1152 1045.74 1036.8 1045.74C921.6 1045.74 806.4 1045.74 691.2 1045.74C576 1045.74 460.8 1045.74 345.6 1045.74C230.4 1045.74 115.2 1045.74 57.6 1045.74H0V772.56Z" fill="white" fill-opacity="0.7"/>
<path d="M0 955.26L57.6 943.602C115.2 932.118 230.4 908.802 345.6 900.45C460.8 892.098 576 898.362 691.2 912.282C806.4 926.202 921.6 947.778 1036.8 958.218C1152 968.658 1267.2 967.962 1382.4 958.392C1497.6 948.822 1612.8 930.378 1670.4 920.982L1728 911.76V1045.74H1670.4C1612.8 1045.74 1497.6 1045.74 1382.4 1045.74C1267.2 1045.74 1152 1045.74 1036.8 1045.74C921.6 1045.74 806.4 1045.74 691.2 1045.74C576 1045.74 460.8 1045.74 345.6 1045.74C230.4 1045.74 115.2 1045.74 57.6 1045.74H0V955.26Z" fill="white" fill-opacity="0.7"/>
</g>
<defs>
<clipPath id="clip0_88_60">
<rect width="1728" height="1044" fill="white"/>
</clipPath>
</defs>
</svg>
